M48
; DRILL file {KiCad 7.0.8} date 2024 August 20, Tuesday 17:03:05
; FORMAT={-:-/ absolute / metric / decimal}
; #@! TF.CreationDate,2024-08-20T17:03:05+09:00
; #@! TF.GenerationSoftware,Kicad,Pcbnew,7.0.8
; #@! TF.FileFunction,Plated,1,2,PTH
FMAT,2
METRIC
; #@! TA.AperFunction,Plated,PTH,ViaDrill
T1C0.400
; #@! TA.AperFunction,Plated,PTH,ComponentDrill
T2C0.500
; #@! TA.AperFunction,Plated,PTH,ComponentDrill
T3C0.750
; #@! TA.AperFunction,Plated,PTH,ComponentDrill
T4C0.813
; #@! TA.AperFunction,Plated,PTH,ComponentDrill
T5C1.300
; #@! TA.AperFunction,Plated,PTH,ComponentDrill
T6C1.850
%
G90
G05
T1
X7.3Y-40.83
X7.57Y-64.272
X11.24Y-7.2
X13.86Y-36.67
X13.88Y-34.55
X15.01Y-33.51
X15.62Y-3.48
X16.81Y-42.11
X22.0Y-45.65
X23.05Y-47.92
X26.086Y-29.12
X35.777Y-21.42
X50.065Y-2.76
X55.11Y-28.56
X64.54Y-47.89
X73.877Y-24.775
X92.927Y-24.06
X111.977Y-22.869
X131.028Y-23.63
X150.077Y-22.1
X161.65Y-4.21
T3
X111.52Y-58.13
X113.52Y-58.13
T4
X-17.8Y-11.067
X-17.8Y-26.287
X-15.26Y-11.067
X-15.26Y-26.287
X-12.72Y-11.067
X-12.72Y-26.287
X-11.27Y-65.29
X-10.18Y-11.067
X-10.18Y-26.287
X-7.64Y-11.067
X-7.64Y-26.287
X-5.44Y-46.42
X-5.1Y-11.067
X-5.1Y-26.287
X-3.65Y-65.29
X-2.56Y-11.067
X-2.56Y-26.287
X-0.02Y-11.067
X-0.02Y-26.287
X2.18Y-46.42
X2.52Y-11.067
X2.52Y-26.287
X5.06Y-11.067
X5.06Y-26.287
X7.6Y-11.067
X7.6Y-26.287
X10.14Y-11.067
X10.14Y-26.287
X12.68Y-11.067
X12.68Y-26.287
X13.71Y-65.32
X15.645Y-8.24
X16.825Y-27.23
X21.33Y-65.32
X23.265Y-8.24
X24.445Y-27.23
X24.8Y-10.66
X27.11Y-27.31
X32.42Y-10.66
X34.34Y-8.36
X34.73Y-27.31
X36.41Y-46.42
X39.14Y-27.23
X41.96Y-8.36
X44.03Y-46.42
X46.76Y-27.23
X48.67Y-46.32
X53.29Y-8.36
X56.29Y-46.32
X58.07Y-27.38
X60.91Y-8.36
X65.69Y-27.38
X67.63Y-46.31
X72.5Y-8.4
X75.25Y-46.31
X77.14Y-27.38
X80.12Y-8.4
X84.76Y-27.38
X86.67Y-46.3
X91.46Y-8.45
X94.29Y-46.3
X96.23Y-27.25
X96.25Y-65.37
X99.08Y-8.45
X103.85Y-27.25
X103.87Y-65.37
X105.69Y-46.31
X110.61Y-8.48
X113.31Y-46.31
X115.32Y-27.23
X118.23Y-8.48
X122.94Y-27.23
X124.74Y-46.33
X129.53Y-8.54
X132.36Y-46.33
X134.23Y-27.26
X137.15Y-8.54
X141.85Y-27.26
X143.85Y-46.34
X143.95Y-8.35
X151.47Y-46.34
X151.57Y-8.35
X153.38Y-27.35
X157.04Y-8.25
X157.22Y-46.54
X161.0Y-27.35
X164.66Y-8.25
X164.84Y-46.54
X169.32Y-65.28
X170.51Y-8.44
X172.745Y-27.27
X176.94Y-65.28
X178.13Y-8.44
X180.365Y-27.27
X189.43Y-46.32
X194.51Y-65.34
X197.05Y-46.32
X202.13Y-65.34
T5
X-16.5Y2.61
X-16.5Y-3.89
T6
X55.98Y-58.38
X72.88Y-58.38
T2
G00X-16.46Y-35.99
M15
G01X-16.46Y-35.69
M16
G05
G00X-16.46Y-38.49
M15
G01X-16.46Y-38.19
M16
G05
G00X-16.46Y-40.99
M15
G01X-16.46Y-40.69
M16
G05
T0
M30
