999
"DXF R12 Output" (www.mydxf.blogspot.com)
 0 
SECTION
 2 
HEADER
 9 
$ACADVER
 1 
AC1009
 9 
$EXTMIN
 10 
 0 
 20 
 0 
 9 
$EXTMAX
 10 
 8.5 
 20 
 11 
 0 
ENDSEC
 0 
SECTION
 2 
ENTITIES
0
LINE
8
Layer 1
10
138.081000
20
117.629000
11
134.130000
21
117.629000
0
LINE
8
Layer 1
10
78.107800
20
119.296000
11
82.050400
21
119.296000
0
LINE
8
Layer 1
10
82.050400
20
119.296000
11
82.050400
21
115.348000
0
LINE
8
Layer 1
10
82.050400
20
115.348000
11
78.107800
21
115.348000
0
LINE
8
Layer 1
10
78.107800
20
115.348000
11
78.107800
21
119.296000
0
LINE
8
Layer 1
10
79.040000
20
113.498000
11
78.998670
21
113.597781
0
LINE
8
Layer 1
10
78.998670
20
113.597781
11
78.898889
21
113.639111
0
LINE
8
Layer 1
10
138.081000
20
115.653000
11
138.180779
21
115.694312
0
LINE
8
Layer 1
10
138.180779
20
115.694312
11
138.222111
21
115.794083
0
LINE
8
Layer 1
10
138.081000
20
122.391000
11
138.180779
21
122.432312
0
LINE
8
Layer 1
10
138.180779
20
122.432312
11
138.222111
21
122.532083
0
LINE
8
Layer 1
10
77.205600
20
113.639000
11
77.105819
21
113.597670
0
LINE
8
Layer 1
10
77.105819
20
113.597670
11
77.064489
21
113.497889
0
LINE
8
Layer 1
10
79.040000
20
113.498000
11
79.040000
21
109.547000
0
LINE
8
Layer 1
10
138.222000
20
117.487000
11
138.080861
21
117.628111
0
LINE
8
Layer 1
10
101.628000
20
119.293000
11
105.571000
21
119.293000
0
LINE
8
Layer 1
10
105.571000
20
119.293000
11
105.571000
21
115.345000
0
LINE
8
Layer 1
10
105.571000
20
115.345000
11
101.628000
21
115.345000
0
LINE
8
Layer 1
10
101.628000
20
115.345000
11
101.628000
21
119.293000
0
LINE
8
Layer 1
10
133.989000
20
124.226000
11
133.989000
21
122.532000
0
LINE
8
Layer 1
10
104.316000
20
113.917000
11
108.259000
21
113.917000
0
LINE
8
Layer 1
10
108.259000
20
113.917000
11
108.259000
21
109.968000
0
LINE
8
Layer 1
10
108.259000
20
109.968000
11
104.316000
21
109.968000
0
LINE
8
Layer 1
10
104.316000
20
109.968000
11
104.316000
21
113.917000
0
LINE
8
Layer 1
10
127.166000
20
124.669000
11
131.108000
21
124.669000
0
LINE
8
Layer 1
10
131.108000
20
124.669000
11
131.108000
21
120.721000
0
LINE
8
Layer 1
10
131.108000
20
120.721000
11
127.166000
21
120.721000
0
LINE
8
Layer 1
10
127.166000
20
120.721000
11
127.166000
21
124.669000
0
LINE
8
Layer 1
10
112.381000
20
119.293000
11
116.323000
21
119.293000
0
LINE
8
Layer 1
10
116.323000
20
119.293000
11
116.323000
21
115.345000
0
LINE
8
Layer 1
10
116.323000
20
115.345000
11
112.381000
21
115.345000
0
LINE
8
Layer 1
10
112.381000
20
115.345000
11
112.381000
21
119.293000
0
LINE
8
Layer 1
10
134.130000
20
117.629000
11
134.030221
21
117.587688
0
LINE
8
Layer 1
10
134.030221
20
117.587688
11
133.988889
21
117.487917
0
LINE
8
Layer 1
10
100.284000
20
124.669000
11
104.227000
21
124.669000
0
LINE
8
Layer 1
10
104.227000
20
124.669000
11
104.227000
21
120.721000
0
LINE
8
Layer 1
10
104.227000
20
120.721000
11
100.284000
21
120.721000
0
LINE
8
Layer 1
10
100.284000
20
120.721000
11
100.284000
21
124.669000
0
LINE
8
Layer 1
10
133.214000
20
113.917000
11
137.157000
21
113.917000
0
LINE
8
Layer 1
10
137.157000
20
113.917000
11
137.157000
21
109.968000
0
LINE
8
Layer 1
10
137.157000
20
109.968000
11
133.214000
21
109.968000
0
LINE
8
Layer 1
10
133.214000
20
109.968000
11
133.214000
21
113.917000
0
LINE
8
Layer 1
10
127.852000
20
108.560000
11
131.795000
21
108.560000
0
LINE
8
Layer 1
10
131.795000
20
108.560000
11
131.795000
21
104.612000
0
LINE
8
Layer 1
10
131.795000
20
104.612000
11
127.852000
21
104.612000
0
LINE
8
Layer 1
10
127.852000
20
104.612000
11
127.852000
21
108.560000
0
LINE
8
Layer 1
10
79.448300
20
113.920000
11
83.391000
21
113.920000
0
LINE
8
Layer 1
10
83.391000
20
113.920000
11
83.391000
21
109.971000
0
LINE
8
Layer 1
10
83.391000
20
109.971000
11
79.448300
21
109.971000
0
LINE
8
Layer 1
10
79.448300
20
109.971000
11
79.448300
21
113.920000
0
LINE
8
Layer 1
10
83.802800
20
109.547000
11
83.844130
21
109.447219
0
LINE
8
Layer 1
10
83.844130
20
109.447219
11
83.943911
21
109.405889
0
LINE
8
Layer 1
10
77.205600
20
113.639000
11
78.898900
21
113.639000
0
LINE
8
Layer 1
10
84.155100
20
124.669000
11
88.097700
21
124.669000
0
LINE
8
Layer 1
10
88.097700
20
124.669000
11
88.097700
21
120.721000
0
LINE
8
Layer 1
10
88.097700
20
120.721000
11
84.155100
21
120.721000
0
LINE
8
Layer 1
10
84.155100
20
120.721000
11
84.155100
21
124.669000
0
LINE
8
Layer 1
10
83.943900
20
113.639000
11
83.802789
21
113.497889
0
LINE
8
Layer 1
10
83.489700
20
108.543000
11
87.432400
21
108.543000
0
LINE
8
Layer 1
10
87.432400
20
108.543000
11
87.432400
21
104.595000
0
LINE
8
Layer 1
10
87.432400
20
104.595000
11
83.489700
21
104.595000
0
LINE
8
Layer 1
10
83.489700
20
104.595000
11
83.489700
21
108.543000
0
LINE
8
Layer 1
10
134.563000
20
108.549000
11
138.506000
21
108.549000
0
LINE
8
Layer 1
10
138.506000
20
108.549000
11
138.506000
21
104.601000
0
LINE
8
Layer 1
10
138.506000
20
104.601000
11
134.563000
21
104.601000
0
LINE
8
Layer 1
10
134.563000
20
104.601000
11
134.563000
21
108.549000
0
LINE
8
Layer 1
10
77.064400
20
109.547000
11
77.105730
21
109.447219
0
LINE
8
Layer 1
10
77.105730
20
109.447219
11
77.205511
21
109.405889
0
LINE
8
Layer 1
10
89.531400
20
124.669000
11
93.474000
21
124.669000
0
LINE
8
Layer 1
10
93.474000
20
124.669000
11
93.474000
21
120.721000
0
LINE
8
Layer 1
10
93.474000
20
120.721000
11
89.531400
21
120.721000
0
LINE
8
Layer 1
10
89.531400
20
120.721000
11
89.531400
21
124.669000
0
LINE
8
Layer 1
10
109.693000
20
113.917000
11
113.635000
21
113.917000
0
LINE
8
Layer 1
10
113.635000
20
113.917000
11
113.635000
21
109.968000
0
LINE
8
Layer 1
10
113.635000
20
109.968000
11
109.693000
21
109.968000
0
LINE
8
Layer 1
10
109.693000
20
109.968000
11
109.693000
21
113.917000
0
LINE
8
Layer 1
10
105.655000
20
108.404000
11
105.655000
21
104.735000
0
LINE
8
Layer 1
10
83.943900
20
109.405000
11
85.637200
21
109.405000
0
LINE
8
Layer 1
10
134.130000
20
124.367000
11
134.030221
21
124.325688
0
LINE
8
Layer 1
10
134.030221
20
124.325688
11
133.988889
21
124.225917
0
LINE
8
Layer 1
10
133.989000
20
122.532000
11
134.130139
21
122.390889
0
LINE
8
Layer 1
10
121.789000
20
124.669000
11
125.732000
21
124.669000
0
LINE
8
Layer 1
10
125.732000
20
124.669000
11
125.732000
21
120.721000
0
LINE
8
Layer 1
10
125.732000
20
120.721000
11
121.789000
21
120.721000
0
LINE
8
Layer 1
10
121.789000
20
120.721000
11
121.789000
21
124.669000
0
LINE
8
Layer 1
10
138.222000
20
124.226000
11
138.222000
21
122.532000
0
LINE
8
Layer 1
10
109.607000
20
108.404000
11
109.607000
21
104.735000
0
LINE
8
Layer 1
10
88.187300
20
113.917000
11
92.130000
21
113.917000
0
LINE
8
Layer 1
10
92.130000
20
113.917000
11
92.130000
21
109.968000
0
LINE
8
Layer 1
10
92.130000
20
109.968000
11
88.187300
21
109.968000
0
LINE
8
Layer 1
10
88.187300
20
109.968000
11
88.187300
21
113.917000
0
LINE
8
Layer 1
10
94.907700
20
124.669000
11
98.850400
21
124.669000
0
LINE
8
Layer 1
10
98.850400
20
124.669000
11
98.850400
21
120.721000
0
LINE
8
Layer 1
10
98.850400
20
120.721000
11
94.907700
21
120.721000
0
LINE
8
Layer 1
10
94.907700
20
120.721000
11
94.907700
21
124.669000
0
LINE
8
Layer 1
10
117.757000
20
119.293000
11
121.700000
21
119.293000
0
LINE
8
Layer 1
10
121.700000
20
119.293000
11
121.700000
21
115.345000
0
LINE
8
Layer 1
10
121.700000
20
115.345000
11
117.757000
21
115.345000
0
LINE
8
Layer 1
10
117.757000
20
115.345000
11
117.757000
21
119.293000
0
LINE
8
Layer 1
10
77.064400
20
113.498000
11
77.064400
21
109.547000
0
LINE
8
Layer 1
10
128.510000
20
119.293000
11
132.452000
21
119.293000
0
LINE
8
Layer 1
10
132.452000
20
119.293000
11
132.452000
21
115.345000
0
LINE
8
Layer 1
10
132.452000
20
115.345000
11
128.510000
21
115.345000
0
LINE
8
Layer 1
10
128.510000
20
115.345000
11
128.510000
21
119.293000
0
LINE
8
Layer 1
10
105.660000
20
124.669000
11
109.603000
21
124.669000
0
LINE
8
Layer 1
10
109.603000
20
124.669000
11
109.603000
21
120.721000
0
LINE
8
Layer 1
10
109.603000
20
120.721000
11
105.660000
21
120.721000
0
LINE
8
Layer 1
10
105.660000
20
120.721000
11
105.660000
21
124.669000
0
LINE
8
Layer 1
10
85.499200
20
119.293000
11
89.441800
21
119.293000
0
LINE
8
Layer 1
10
89.441800
20
119.293000
11
89.441800
21
115.345000
0
LINE
8
Layer 1
10
89.441800
20
115.345000
11
85.499200
21
115.345000
0
LINE
8
Layer 1
10
85.499200
20
115.345000
11
85.499200
21
119.293000
0
LINE
8
Layer 1
10
76.761600
20
108.546000
11
80.704200
21
108.546000
0
LINE
8
Layer 1
10
80.704200
20
108.546000
11
80.704200
21
104.598000
0
LINE
8
Layer 1
10
80.704200
20
104.598000
11
76.761600
21
104.598000
0
LINE
8
Layer 1
10
76.761600
20
104.598000
11
76.761600
21
108.546000
0
LINE
8
Layer 1
10
133.989000
20
117.487000
11
133.989000
21
115.794000
0
LINE
8
Layer 1
10
109.607000
20
108.404000
11
109.565670
21
108.503781
0
LINE
8
Layer 1
10
109.565670
20
108.503781
11
109.465889
21
108.545111
0
LINE
8
Layer 1
10
75.373000
20
125.386000
11
139.889000
21
125.386000
0
LINE
8
Layer 1
10
139.889000
20
125.386000
11
139.889000
21
103.364000
0
LINE
8
Layer 1
10
139.889000
20
103.364000
11
75.373000
21
103.364000
0
LINE
8
Layer 1
10
75.373000
20
103.364000
11
75.373000
21
125.386000
0
LINE
8
Layer 1
10
96.251800
20
119.293000
11
100.194000
21
119.293000
0
LINE
8
Layer 1
10
100.194000
20
119.293000
11
100.194000
21
115.345000
0
LINE
8
Layer 1
10
100.194000
20
115.345000
11
96.251800
21
115.345000
0
LINE
8
Layer 1
10
96.251800
20
115.345000
11
96.251800
21
119.293000
0
LINE
8
Layer 1
10
134.561000
20
121.985000
11
138.503000
21
121.985000
0
LINE
8
Layer 1
10
138.503000
20
121.985000
11
138.503000
21
118.037000
0
LINE
8
Layer 1
10
138.503000
20
118.037000
11
134.561000
21
118.037000
0
LINE
8
Layer 1
10
134.561000
20
118.037000
11
134.561000
21
121.985000
0
LINE
8
Layer 1
10
120.445000
20
113.917000
11
124.388000
21
113.917000
0
LINE
8
Layer 1
10
124.388000
20
113.917000
11
124.388000
21
109.968000
0
LINE
8
Layer 1
10
124.388000
20
109.968000
11
120.445000
21
109.968000
0
LINE
8
Layer 1
10
120.445000
20
109.968000
11
120.445000
21
113.917000
0
LINE
8
Layer 1
10
133.989000
20
115.794000
11
134.130139
21
115.652889
0
LINE
8
Layer 1
10
85.778300
20
113.498000
11
85.736970
21
113.597781
0
LINE
8
Layer 1
10
85.736970
20
113.597781
11
85.637189
21
113.639111
0
LINE
8
Layer 1
10
138.081000
20
122.391000
11
134.130000
21
122.391000
0
LINE
8
Layer 1
10
83.802800
20
113.498000
11
83.802800
21
109.547000
0
LINE
8
Layer 1
10
56.388300
20
67.627900
11
60.330900
21
67.627900
0
LINE
8
Layer 1
10
60.330900
20
67.627900
11
60.330900
21
63.679600
0
LINE
8
Layer 1
10
60.330900
20
63.679600
11
56.388300
21
63.679600
0
LINE
8
Layer 1
10
56.388300
20
63.679600
11
56.388300
21
67.627900
0
LINE
8
Layer 1
10
37.571200
20
73.004200
11
41.513800
21
73.004200
0
LINE
8
Layer 1
10
41.513800
20
73.004200
11
41.513800
21
69.055900
0
LINE
8
Layer 1
10
41.513800
20
69.055900
11
37.571200
21
69.055900
0
LINE
8
Layer 1
10
37.571200
20
69.055900
11
37.571200
21
73.004200
0
LINE
8
Layer 1
10
29.506700
20
67.627900
11
33.449300
21
67.627900
0
LINE
8
Layer 1
10
33.449300
20
67.627900
11
33.449300
21
63.679600
0
LINE
8
Layer 1
10
33.449300
20
63.679600
11
29.506700
21
63.679600
0
LINE
8
Layer 1
10
29.506700
20
63.679600
11
29.506700
21
67.627900
0
LINE
8
Layer 1
10
138.222000
20
124.226000
11
138.080861
21
124.367111
0
LINE
8
Layer 1
10
105.655000
20
104.735000
11
105.696330
21
104.635219
0
LINE
8
Layer 1
10
105.696330
20
104.635219
11
105.796111
21
104.593889
0
LINE
8
Layer 1
10
85.637200
20
109.405000
11
85.736981
21
109.446330
0
LINE
8
Layer 1
10
85.736981
20
109.446330
11
85.778311
21
109.546111
0
LINE
8
Layer 1
10
21.442200
20
73.004200
11
25.384800
21
73.004200
0
LINE
8
Layer 1
10
25.384800
20
73.004200
11
25.384800
21
69.055900
0
LINE
8
Layer 1
10
25.384800
20
69.055900
11
21.442200
21
69.055900
0
LINE
8
Layer 1
10
21.442200
20
69.055900
11
21.442200
21
73.004200
0
LINE
8
Layer 1
10
41.603400
20
78.380500
11
45.546000
21
78.380500
0
LINE
8
Layer 1
10
45.546000
20
78.380500
11
45.546000
21
74.432200
0
LINE
8
Layer 1
10
45.546000
20
74.432200
11
41.603400
21
74.432200
0
LINE
8
Layer 1
10
41.603400
20
74.432200
11
41.603400
21
78.380500
0
LINE
8
Layer 1
10
7.999930
20
78.389000
11
11.942600
21
78.389000
0
LINE
8
Layer 1
10
11.942600
20
78.389000
11
11.942600
21
74.440700
0
LINE
8
Layer 1
10
11.942600
20
74.440700
11
7.999930
21
74.440700
0
LINE
8
Layer 1
10
7.999930
20
74.440700
11
7.999930
21
78.389000
0
LINE
8
Layer 1
10
53.700100
20
73.004200
11
57.642800
21
73.004200
0
LINE
8
Layer 1
10
57.642800
20
73.004200
11
57.642800
21
69.055900
0
LINE
8
Layer 1
10
57.642800
20
69.055900
11
53.700100
21
69.055900
0
LINE
8
Layer 1
10
53.700100
20
69.055900
11
53.700100
21
73.004200
0
LINE
8
Layer 1
10
77.205600
20
109.405000
11
78.898900
21
109.405000
0
LINE
8
Layer 1
10
45.635700
20
67.627900
11
49.578300
21
67.627900
0
LINE
8
Layer 1
10
49.578300
20
67.627900
11
49.578300
21
63.679600
0
LINE
8
Layer 1
10
49.578300
20
63.679600
11
45.635700
21
63.679600
0
LINE
8
Layer 1
10
45.635700
20
63.679600
11
45.635700
21
67.627900
0
LINE
8
Layer 1
10
138.081000
20
115.653000
11
134.130000
21
115.653000
0
LINE
8
Layer 1
10
116.413000
20
124.669000
11
120.356000
21
124.669000
0
LINE
8
Layer 1
10
120.356000
20
124.669000
11
120.356000
21
120.721000
0
LINE
8
Layer 1
10
120.356000
20
120.721000
11
116.413000
21
120.721000
0
LINE
8
Layer 1
10
116.413000
20
120.721000
11
116.413000
21
124.669000
0
LINE
8
Layer 1
10
138.081000
20
124.367000
11
134.130000
21
124.367000
0
LINE
8
Layer 1
10
105.797000
20
104.594000
11
109.465000
21
104.594000
0
LINE
8
Layer 1
10
85.778300
20
113.498000
11
85.778300
21
109.547000
0
LINE
8
Layer 1
10
105.797000
20
108.545000
11
105.697219
21
108.503670
0
LINE
8
Layer 1
10
105.697219
20
108.503670
11
105.655889
21
108.403889
0
LINE
8
Layer 1
10
78.898900
20
109.405000
11
78.998681
21
109.446330
0
LINE
8
Layer 1
10
78.998681
20
109.446330
11
79.040011
21
109.546111
0
LINE
8
Layer 1
10
105.797000
20
108.545000
11
109.465000
21
108.545000
0
LINE
8
Layer 1
10
109.465000
20
104.594000
11
109.564781
21
104.635330
0
LINE
8
Layer 1
10
109.564781
20
104.635330
11
109.606111
21
104.735111
0
LINE
8
Layer 1
10
138.222000
20
117.487000
11
138.222000
21
115.794000
0
LINE
8
Layer 1
10
83.943900
20
113.639000
11
85.637200
21
113.639000
0
LINE
8
Layer 1
10
93.563600
20
113.917000
11
97.506300
21
113.917000
0
LINE
8
Layer 1
10
97.506300
20
113.917000
11
97.506300
21
109.968000
0
LINE
8
Layer 1
10
97.506300
20
109.968000
11
93.563600
21
109.968000
0
LINE
8
Layer 1
10
93.563600
20
109.968000
11
93.563600
21
113.917000
0
LINE
8
Layer 1
10
90.655400
20
108.262000
11
90.555619
21
108.220670
0
LINE
8
Layer 1
10
90.555619
20
108.220670
11
90.514289
21
108.120889
0
LINE
8
Layer 1
10
120.900000
20
104.029000
11
122.913000
21
104.029000
0
LINE
8
Layer 1
10
92.675400
20
108.261000
11
94.368700
21
108.261000
0
LINE
8
Layer 1
10
122.913000
20
108.262000
11
124.607000
21
108.262000
0
LINE
8
Layer 1
10
120.900000
20
108.262000
11
120.800219
21
108.220670
0
LINE
8
Layer 1
10
120.800219
20
108.220670
11
120.758889
21
108.120889
0
LINE
8
Layer 1
10
92.675400
20
104.028000
11
94.368700
21
104.028000
0
LINE
8
Layer 1
10
90.514200
20
104.170000
11
90.555530
21
104.070219
0
LINE
8
Layer 1
10
90.555530
20
104.070219
11
90.655311
21
104.028889
0
LINE
8
Layer 1
10
120.900000
20
108.262000
11
122.913000
21
108.262000
0
LINE
8
Layer 1
10
120.759000
20
104.170000
11
120.800330
21
104.070219
0
LINE
8
Layer 1
10
120.800330
20
104.070219
11
120.900111
21
104.028889
0
LINE
8
Layer 1
10
90.655400
20
104.029000
11
92.675400
21
104.027589
0
LINE
8
Layer 1
10
124.748000
20
108.121000
11
124.706670
21
108.220781
0
LINE
8
Layer 1
10
124.706670
20
108.220781
11
124.606889
21
108.262111
0
LINE
8
Layer 1
10
124.607000
20
104.029000
11
124.748111
21
104.170111
0
LINE
8
Layer 1
10
124.748000
20
108.121000
11
124.748000
21
104.170000
0
LINE
8
Layer 1
10
94.509800
20
108.120000
11
94.468470
21
108.219781
0
LINE
8
Layer 1
10
94.468470
20
108.219781
11
94.368689
21
108.261111
0
LINE
8
Layer 1
10
90.655400
20
108.262000
11
92.675400
21
108.260589
0
LINE
8
Layer 1
10
122.913000
20
104.029000
11
124.607000
21
104.029000
0
LINE
8
Layer 1
10
94.368700
20
104.028000
11
94.468481
21
104.069330
0
LINE
8
Layer 1
10
94.468481
20
104.069330
11
94.509811
21
104.169111
0
LINE
8
Layer 1
10
94.509800
20
108.120000
11
94.509800
21
104.169000
0
LINE
8
Layer 1
10
90.514200
20
108.121000
11
90.514200
21
104.170000
0
LINE
8
Layer 1
10
120.759000
20
108.121000
11
120.759000
21
104.170000
 0 
ENDSEC
 0 
EOF