M48
; DRILL file {KiCad 7.0.8} date 2024 August 09, Friday 14:35:16
; FORMAT={-:-/ absolute / metric / decimal}
; #@! TF.CreationDate,2024-08-09T14:35:16+09:00
; #@! TF.GenerationSoftware,Kicad,Pcbnew,7.0.8
; #@! TF.FileFunction,NonPlated,1,2,NPTH
FMAT,2
METRIC
; #@! TA.AperFunction,NonPlated,NPTH,ComponentDrill
T1C1.900
; #@! TA.AperFunction,NonPlated,NPTH,ComponentDrill
T2C3.000
; #@! TA.AperFunction,NonPlated,NPTH,ComponentDrill
T3C4.100
%
G90
G05
T1
X-12.221Y-57.12
X-9.842Y0.0
X-7.462Y-19.03
X-2.692Y-38.09
X-2.061Y-57.12
X0.318Y0.0
X2.697Y-19.03
X7.467Y-38.09
X11.598Y-57.13
X13.97Y0.0
X18.732Y-19.05
X21.758Y-57.13
X24.13Y0.0
X28.258Y-38.1
X28.892Y-19.05
X33.02Y0.0
X37.782Y-19.05
X38.417Y-38.1
X43.18Y0.0
X47.307Y-38.1
X47.942Y-19.05
X52.07Y0.0
X56.832Y-19.05
X57.467Y-38.1
X62.23Y0.0
X66.358Y-38.1
X66.992Y-19.05
X71.12Y0.0
X75.882Y-19.05
X76.517Y-38.1
X81.28Y0.0
X85.407Y-38.1
X86.042Y-19.05
X90.17Y0.0
X90.18Y-57.12
X94.932Y-19.05
X95.567Y-38.1
X100.33Y0.0
X100.34Y-57.12
X104.457Y-38.1
X105.093Y-19.05
X109.22Y0.0
X113.983Y-19.05
X114.617Y-38.1
X119.38Y0.0
X123.507Y-38.1
X124.142Y-19.05
X128.27Y0.0
X133.032Y-19.05
X133.667Y-38.1
X138.43Y0.0
X142.558Y-38.1
X143.192Y-19.05
X147.32Y0.0
X152.082Y-19.05
X152.718Y-38.1
X157.48Y0.0
X161.607Y-38.1
X162.243Y-19.05
X166.37Y0.0
X168.751Y-57.12
X171.12Y-19.03
X171.767Y-38.1
X176.53Y0.0
X178.911Y-57.12
X181.28Y-19.03
X187.8Y-38.06
X192.549Y-57.14
X192.57Y-9.5
X197.96Y-38.06
X202.709Y-57.14
X202.73Y-9.5
T2
X-10.951Y-54.58
X-8.572Y2.54
X-6.192Y-16.49
X-4.601Y-52.04
X-2.222Y5.08
X-1.422Y-35.55
X0.158Y-13.95
X4.928Y-33.01
X12.867Y-54.59
X15.24Y2.54
X19.217Y-52.05
X20.002Y-16.51
X21.59Y5.08
X26.352Y-13.97
X29.527Y-35.56
X34.29Y2.54
X35.877Y-33.02
X39.052Y-16.51
X40.64Y5.08
X45.402Y-13.97
X48.578Y-35.56
X53.34Y2.54
X54.927Y-33.02
X58.102Y-16.51
X59.69Y5.08
X64.453Y-13.97
X67.627Y-35.56
X72.39Y2.54
X73.977Y-33.02
X77.153Y-16.51
X78.74Y5.08
X83.502Y-13.97
X86.677Y-35.56
X91.44Y2.54
X91.45Y-54.58
X93.027Y-33.02
X96.203Y-16.51
X97.79Y5.08
X97.8Y-52.04
X102.552Y-13.97
X105.727Y-35.56
X110.49Y2.54
X112.078Y-33.02
X115.252Y-16.51
X116.84Y5.08
X121.602Y-13.97
X124.777Y-35.56
X129.54Y2.54
X131.127Y-33.02
X134.302Y-16.51
X135.89Y5.08
X140.653Y-13.97
X143.827Y-35.56
X148.59Y2.54
X150.177Y-33.02
X153.352Y-16.51
X154.94Y5.08
X159.702Y-13.97
X162.877Y-35.56
X167.64Y2.54
X169.227Y-33.02
X170.021Y-54.58
X172.39Y-16.49
X173.99Y5.08
X176.371Y-52.04
X178.74Y-13.95
X189.07Y-35.52
X193.819Y-54.6
X193.84Y-6.96
X195.42Y-32.98
X200.169Y-52.06
X200.19Y-4.42
T3
X-7.141Y-57.12
X-4.763Y0.0
X-2.382Y-19.03
X2.387Y-38.09
X16.677Y-57.13
X19.05Y0.0
X23.812Y-19.05
X33.337Y-38.1
X38.1Y0.0
X42.862Y-19.05
X52.387Y-38.1
X57.15Y0.0
X61.912Y-19.05
X71.438Y-38.1
X76.2Y0.0
X80.962Y-19.05
X90.487Y-38.1
X95.25Y0.0
X95.26Y-57.12
X100.012Y-19.05
X109.537Y-38.1
X114.3Y0.0
X119.062Y-19.05
X128.588Y-38.1
X133.35Y0.0
X138.112Y-19.05
X147.637Y-38.1
X152.4Y0.0
X157.162Y-19.05
X166.688Y-38.1
X171.45Y0.0
X173.831Y-57.12
X176.2Y-19.03
X192.88Y-38.06
X197.629Y-57.14
X197.65Y-9.5
T0
M30
