G04 #@! TF.GenerationSoftware,KiCad,Pcbnew,7.0.8*
G04 #@! TF.CreationDate,2024-08-09T14:35:13+09:00*
G04 #@! TF.ProjectId,tacash36,74616361-7368-4333-962e-6b696361645f,rev?*
G04 #@! TF.SameCoordinates,Original*
G04 #@! TF.FileFunction,Copper,L2,Bot*
G04 #@! TF.FilePolarity,Positive*
%FSLAX46Y46*%
G04 Gerber Fmt 4.6, Leading zero omitted, Abs format (unit mm)*
G04 Created by KiCad (PCBNEW 7.0.8) date 2024-08-09 14:35:13*
%MOMM*%
%LPD*%
G01*
G04 APERTURE LIST*
G04 Aperture macros list*
%AMRoundRect*
0 Rectangle with rounded corners*
0 $1 Rounding radius*
0 $2 $3 $4 $5 $6 $7 $8 $9 X,Y pos of 4 corners*
0 Add a 4 corners polygon primitive as box body*
4,1,4,$2,$3,$4,$5,$6,$7,$8,$9,$2,$3,0*
0 Add four circle primitives for the rounded corners*
1,1,$1+$1,$2,$3*
1,1,$1+$1,$4,$5*
1,1,$1+$1,$6,$7*
1,1,$1+$1,$8,$9*
0 Add four rect primitives between the rounded corners*
20,1,$1+$1,$2,$3,$4,$5,0*
20,1,$1+$1,$4,$5,$6,$7,0*
20,1,$1+$1,$6,$7,$8,$9,0*
20,1,$1+$1,$8,$9,$2,$3,0*%
G04 Aperture macros list end*
G04 #@! TA.AperFunction,SMDPad,CuDef*
%ADD10R,2.550000X2.500000*%
G04 #@! TD*
G04 #@! TA.AperFunction,ComponentPad*
%ADD11R,1.397000X1.397000*%
G04 #@! TD*
G04 #@! TA.AperFunction,SMDPad,CuDef*
%ADD12R,1.300000X0.950000*%
G04 #@! TD*
G04 #@! TA.AperFunction,ComponentPad*
%ADD13C,1.397000*%
G04 #@! TD*
G04 #@! TA.AperFunction,ComponentPad*
%ADD14O,1.000000X1.300000*%
G04 #@! TD*
G04 #@! TA.AperFunction,ComponentPad*
%ADD15C,1.524000*%
G04 #@! TD*
G04 #@! TA.AperFunction,ComponentPad*
%ADD16R,1.524000X1.524000*%
G04 #@! TD*
G04 #@! TA.AperFunction,ComponentPad*
%ADD17RoundRect,0.250000X-0.350000X-0.625000X0.350000X-0.625000X0.350000X0.625000X-0.350000X0.625000X0*%
G04 #@! TD*
G04 #@! TA.AperFunction,ComponentPad*
%ADD18O,1.200000X1.750000*%
G04 #@! TD*
G04 #@! TA.AperFunction,ComponentPad*
%ADD19C,2.000000*%
G04 #@! TD*
G04 #@! TA.AperFunction,ComponentPad*
%ADD20C,2.850000*%
G04 #@! TD*
G04 #@! TA.AperFunction,SMDPad,CuDef*
%ADD21C,10.000000*%
G04 #@! TD*
G04 #@! TA.AperFunction,SMDPad,CuDef*
%ADD22R,2.600000X3.000000*%
G04 #@! TD*
G04 #@! TA.AperFunction,ViaPad*
%ADD23C,0.800000*%
G04 #@! TD*
G04 #@! TA.AperFunction,Conductor*
%ADD24C,0.250000*%
G04 #@! TD*
G04 APERTURE END LIST*
D10*
X83402500Y-35560000D03*
X96329500Y-33020000D03*
X45302500Y-35560000D03*
X58229500Y-33020000D03*
D11*
X36410000Y-46420000D03*
D12*
X38445000Y-46420000D03*
X41995000Y-46420000D03*
D13*
X44030000Y-46420000D03*
D11*
X-5440000Y-46420000D03*
D12*
X-3405000Y-46420000D03*
X145000Y-46420000D03*
D13*
X2180000Y-46420000D03*
D10*
X-4697500Y-35550000D03*
X8229500Y-33010000D03*
D11*
X105690000Y-46310000D03*
D12*
X107725000Y-46310000D03*
X111275000Y-46310000D03*
D13*
X113310000Y-46310000D03*
D10*
X190565000Y-6960000D03*
X203492000Y-4420000D03*
D11*
X124740000Y-46330000D03*
D12*
X126775000Y-46330000D03*
X130325000Y-46330000D03*
D13*
X132360000Y-46330000D03*
D10*
X150077500Y-16510000D03*
X163004500Y-13970000D03*
X185795000Y-35520000D03*
X198722000Y-32980000D03*
X140552500Y-35560000D03*
X153479500Y-33020000D03*
D11*
X157220000Y-46540000D03*
D12*
X159255000Y-46540000D03*
X162805000Y-46540000D03*
D13*
X164840000Y-46540000D03*
D11*
X24800000Y-10660000D03*
D12*
X26835000Y-10660000D03*
X30385000Y-10660000D03*
D13*
X32420000Y-10660000D03*
D11*
X58070000Y-27380000D03*
D12*
X60105000Y-27380000D03*
X63655000Y-27380000D03*
D13*
X65690000Y-27380000D03*
D11*
X169320000Y-65280000D03*
D12*
X171355000Y-65280000D03*
X174905000Y-65280000D03*
D13*
X176940000Y-65280000D03*
D10*
X88175000Y-54580000D03*
X101102000Y-52040000D03*
D11*
X27110000Y-27310000D03*
D12*
X29145000Y-27310000D03*
X32695000Y-27310000D03*
D13*
X34730000Y-27310000D03*
D11*
X16825000Y-27230000D03*
D12*
X18860000Y-27230000D03*
X22410000Y-27230000D03*
D13*
X24445000Y-27230000D03*
D10*
X26252500Y-35560000D03*
X39179500Y-33020000D03*
X11965000Y2540000D03*
X24892000Y5080000D03*
X166746250Y-54580000D03*
X179673250Y-52040000D03*
X145315000Y2540000D03*
X158242000Y5080000D03*
X88165000Y2540000D03*
X101092000Y5080000D03*
X92927500Y-16510000D03*
X105854500Y-13970000D03*
X-14226250Y-54580000D03*
X-1299250Y-52040000D03*
D11*
X170510000Y-8440000D03*
D12*
X172545000Y-8440000D03*
X176095000Y-8440000D03*
D13*
X178130000Y-8440000D03*
D11*
X115320000Y-27230000D03*
D12*
X117355000Y-27230000D03*
X120905000Y-27230000D03*
D13*
X122940000Y-27230000D03*
D10*
X159602500Y-35560000D03*
X172529500Y-33020000D03*
X164365000Y2540000D03*
X177292000Y5080000D03*
D11*
X143950000Y-8350000D03*
D12*
X145985000Y-8350000D03*
X149535000Y-8350000D03*
D13*
X151570000Y-8350000D03*
D10*
X-11847500Y2540000D03*
X1079500Y5080000D03*
D14*
X-16460000Y-40840000D03*
X-16460000Y-38340000D03*
X-16460000Y-35840000D03*
D10*
X69115000Y2540000D03*
X82042000Y5080000D03*
X121502500Y-35560000D03*
X134429500Y-33020000D03*
X50065000Y2540000D03*
X62992000Y5080000D03*
D11*
X53290000Y-8360000D03*
D12*
X55325000Y-8360000D03*
X58875000Y-8360000D03*
D13*
X60910000Y-8360000D03*
D11*
X15645000Y-8240000D03*
D12*
X17680000Y-8240000D03*
X21230000Y-8240000D03*
D13*
X23265000Y-8240000D03*
D11*
X96230000Y-27250000D03*
D12*
X98265000Y-27250000D03*
X101815000Y-27250000D03*
D13*
X103850000Y-27250000D03*
D15*
X-15260000Y-11067200D03*
X-12720000Y-11067200D03*
X-10180000Y-11067200D03*
X-7640000Y-11067200D03*
X-5100000Y-11067200D03*
X-2560000Y-11067200D03*
X-20000Y-11067200D03*
X2520000Y-11067200D03*
X5060000Y-11067200D03*
X7600000Y-11067200D03*
X10140000Y-11067200D03*
X12680000Y-11067200D03*
X12680000Y-26287200D03*
X10140000Y-26287200D03*
X7600000Y-26287200D03*
X5060000Y-26287200D03*
X2520000Y-26287200D03*
X-20000Y-26287200D03*
X-2560000Y-26287200D03*
X-5100000Y-26287200D03*
X-7640000Y-26287200D03*
X-10180000Y-26287200D03*
X-12720000Y-26287200D03*
X-15260000Y-26287200D03*
D16*
X-17800000Y-26287200D03*
D15*
X-17800000Y-11067200D03*
D11*
X91460000Y-8450000D03*
D12*
X93495000Y-8450000D03*
X97045000Y-8450000D03*
D13*
X99080000Y-8450000D03*
D10*
X64352500Y-35560000D03*
X77279500Y-33020000D03*
D11*
X96250000Y-65370000D03*
D12*
X98285000Y-65370000D03*
X101835000Y-65370000D03*
D13*
X103870000Y-65370000D03*
D11*
X13710000Y-65320000D03*
D12*
X15745000Y-65320000D03*
X19295000Y-65320000D03*
D13*
X21330000Y-65320000D03*
D10*
X16727500Y-16510000D03*
X29654500Y-13970000D03*
X111977500Y-16510000D03*
X124904500Y-13970000D03*
D11*
X129530000Y-8540000D03*
D12*
X131565000Y-8540000D03*
X135115000Y-8540000D03*
D13*
X137150000Y-8540000D03*
D10*
X31015000Y2540000D03*
X43942000Y5080000D03*
D11*
X34340000Y-8360000D03*
D12*
X36375000Y-8360000D03*
X39925000Y-8360000D03*
D13*
X41960000Y-8360000D03*
D11*
X153380000Y-27350000D03*
D12*
X155415000Y-27350000D03*
X158965000Y-27350000D03*
D13*
X161000000Y-27350000D03*
D11*
X172745000Y-27270000D03*
D12*
X174780000Y-27270000D03*
X178330000Y-27270000D03*
D13*
X180365000Y-27270000D03*
D10*
X131027500Y-16510000D03*
X143954500Y-13970000D03*
D11*
X110610000Y-8480000D03*
D12*
X112645000Y-8480000D03*
X116195000Y-8480000D03*
D13*
X118230000Y-8480000D03*
D10*
X190544250Y-54600000D03*
X203471250Y-52060000D03*
D11*
X39140000Y-27230000D03*
D12*
X41175000Y-27230000D03*
X44725000Y-27230000D03*
D13*
X46760000Y-27230000D03*
D11*
X134230000Y-27260000D03*
D12*
X136265000Y-27260000D03*
X139815000Y-27260000D03*
D13*
X141850000Y-27260000D03*
D11*
X143850000Y-46340000D03*
D12*
X145885000Y-46340000D03*
X149435000Y-46340000D03*
D13*
X151470000Y-46340000D03*
D10*
X107215000Y2540000D03*
X120142000Y5080000D03*
X169115000Y-16490000D03*
X182042000Y-13950000D03*
X-9467500Y-16490000D03*
X3459500Y-13950000D03*
D11*
X189430000Y-46320000D03*
D12*
X191465000Y-46320000D03*
X195015000Y-46320000D03*
D13*
X197050000Y-46320000D03*
D11*
X-11270000Y-65290000D03*
D12*
X-9235000Y-65290000D03*
X-5685000Y-65290000D03*
D13*
X-3650000Y-65290000D03*
D10*
X73877500Y-16510000D03*
X86804500Y-13970000D03*
X35777500Y-16510000D03*
X48704500Y-13970000D03*
D11*
X157040000Y-8250000D03*
D12*
X159075000Y-8250000D03*
X162625000Y-8250000D03*
D13*
X164660000Y-8250000D03*
D11*
X194510000Y-65340000D03*
D12*
X196545000Y-65340000D03*
X200095000Y-65340000D03*
D13*
X202130000Y-65340000D03*
D11*
X67630000Y-46310000D03*
D12*
X69665000Y-46310000D03*
X73215000Y-46310000D03*
D13*
X75250000Y-46310000D03*
D10*
X126265000Y2540000D03*
X139192000Y5080000D03*
X102452500Y-35560000D03*
X115379500Y-33020000D03*
D11*
X72500000Y-8400000D03*
D12*
X74535000Y-8400000D03*
X78085000Y-8400000D03*
D13*
X80120000Y-8400000D03*
D11*
X48670000Y-46320000D03*
D12*
X50705000Y-46320000D03*
X54255000Y-46320000D03*
D13*
X56290000Y-46320000D03*
D17*
X111520000Y-58130000D03*
D18*
X113520000Y-58130000D03*
D11*
X77140000Y-27380000D03*
D12*
X79175000Y-27380000D03*
X82725000Y-27380000D03*
D13*
X84760000Y-27380000D03*
D10*
X9592500Y-54590000D03*
X22519500Y-52050000D03*
D19*
X-16500000Y-3890000D03*
X-16500000Y2610000D03*
D10*
X54827500Y-16510000D03*
X67754500Y-13970000D03*
D11*
X86670000Y-46300000D03*
D12*
X88705000Y-46300000D03*
X92255000Y-46300000D03*
D13*
X94290000Y-46300000D03*
D20*
X55980000Y-58380000D03*
X72880000Y-58380000D03*
D21*
X64430000Y-58380000D03*
D22*
X19700000Y-34540000D03*
X19700000Y-39540000D03*
D23*
X15620000Y-3480000D03*
X13860000Y-36670000D03*
X7570000Y-64271593D03*
X15005500Y-43915500D03*
X15010000Y-33510000D03*
X26086500Y-29120000D03*
X35777500Y-21420000D03*
X55110000Y-28560000D03*
X50065000Y-2760000D03*
X73877500Y-24775500D03*
X92927500Y-24060000D03*
X111977500Y-22869500D03*
X131027500Y-23630000D03*
X150077500Y-22100000D03*
X161650000Y-4210000D03*
X23050000Y-47920000D03*
X64540000Y-47890000D03*
X7300000Y-40830000D03*
X11240500Y-7200135D03*
X13880000Y-34550000D03*
X22000000Y-45650000D03*
D24*
X91460000Y-8450000D02*
X93495000Y-8450000D01*
X34340000Y-8360000D02*
X36375000Y-8360000D01*
X143950000Y-8350000D02*
X145985000Y-8350000D01*
X15645000Y-3505000D02*
X15645000Y-8240000D01*
X157040000Y-8250000D02*
X159075000Y-8250000D01*
X110610000Y-8480000D02*
X112645000Y-8480000D01*
X24800000Y-10660000D02*
X26835000Y-10660000D01*
X72500000Y-8400000D02*
X74535000Y-8400000D01*
X129530000Y-8540000D02*
X131565000Y-8540000D01*
X15620000Y-3480000D02*
X15645000Y-3505000D01*
X15645000Y-8240000D02*
X17680000Y-8240000D01*
X53290000Y-8360000D02*
X55325000Y-8360000D01*
X27110000Y-27310000D02*
X29145000Y-27310000D01*
X172745000Y-27270000D02*
X174780000Y-27270000D01*
X96230000Y-27250000D02*
X98265000Y-27250000D01*
X77140000Y-27380000D02*
X79175000Y-27380000D01*
X58070000Y-27380000D02*
X60105000Y-27380000D01*
X153380000Y-27350000D02*
X155415000Y-27350000D01*
X134230000Y-27260000D02*
X136265000Y-27260000D01*
X16825000Y-27230000D02*
X18860000Y-27230000D01*
X39140000Y-27230000D02*
X41175000Y-27230000D01*
X115320000Y-27230000D02*
X117355000Y-27230000D01*
X36410000Y-46420000D02*
X38445000Y-46420000D01*
X145885000Y-46340000D02*
X143850000Y-46340000D01*
X105690000Y-46310000D02*
X107725000Y-46310000D01*
X48670000Y-46320000D02*
X50705000Y-46320000D01*
X2520000Y-26287200D02*
X5502800Y-29270000D01*
X86670000Y-46300000D02*
X88705000Y-46300000D01*
X7574695Y-29270000D02*
X13860000Y-35555305D01*
X157220000Y-46540000D02*
X159255000Y-46540000D01*
X67630000Y-46310000D02*
X69665000Y-46310000D01*
X-5440000Y-46420000D02*
X-3405000Y-46420000D01*
X5502800Y-29270000D02*
X7574695Y-29270000D01*
X124740000Y-46330000D02*
X126775000Y-46330000D01*
X13860000Y-35555305D02*
X13860000Y-36670000D01*
X10320000Y-28820000D02*
X15010000Y-33510000D01*
X7592800Y-28820000D02*
X10320000Y-28820000D01*
X174145000Y-12075000D02*
X170510000Y-8440000D01*
X7570000Y-53530000D02*
X7570000Y-64271593D01*
X183151620Y-12075000D02*
X174145000Y-12075000D01*
X194510000Y-65340000D02*
X196545000Y-65340000D01*
X15005500Y-43915500D02*
X15005500Y-46094500D01*
X183750000Y-18970000D02*
X183750000Y-12673380D01*
X189430000Y-46320000D02*
X189430000Y-37811650D01*
X170510000Y-8440000D02*
X172545000Y-8440000D01*
X170941620Y-8440000D02*
X170510000Y-8440000D01*
X183750000Y-12673380D02*
X183151620Y-12075000D01*
X13710000Y-65320000D02*
X15745000Y-65320000D01*
X189430000Y-46320000D02*
X191465000Y-46320000D01*
X15005500Y-46094500D02*
X7570000Y-53530000D01*
X190945000Y-36296650D02*
X190945000Y-26165000D01*
X190945000Y-26165000D02*
X183750000Y-18970000D01*
X96250000Y-65370000D02*
X98285000Y-65370000D01*
X-11270000Y-65290000D02*
X-9235000Y-65290000D01*
X189430000Y-37811650D02*
X190945000Y-36296650D01*
X5060000Y-26287200D02*
X7592800Y-28820000D01*
X169320000Y-65280000D02*
X171355000Y-65280000D01*
X-9467500Y-21919700D02*
X-9467500Y-16490000D01*
X-5100000Y-26287200D02*
X-5100000Y-35147500D01*
X-5100000Y-26287200D02*
X-9467500Y-21919700D01*
X-9467500Y-16490000D02*
X-11267000Y-14690500D01*
X-4600000Y-35452500D02*
X-4697500Y-35550000D01*
X-11847500Y-4322500D02*
X-11847500Y2540000D01*
X-5100000Y-35147500D02*
X-4697500Y-35550000D01*
X-11267000Y-14690500D02*
X-11267000Y-4903000D01*
X-14226250Y-45078750D02*
X-4697500Y-35550000D01*
X-11185000Y1877500D02*
X-11847500Y2540000D01*
X-11267000Y-4903000D02*
X-11847500Y-4322500D01*
X-14226250Y-54580000D02*
X-14226250Y-45078750D01*
X11965000Y2765000D02*
X11965000Y2540000D01*
X19888666Y-22080000D02*
X21630000Y-22080000D01*
X26252500Y-45997500D02*
X23498750Y-48751250D01*
X11965000Y2540000D02*
X11965000Y-4700000D01*
X26086500Y-35394000D02*
X26252500Y-35560000D01*
X9592500Y-52220000D02*
X9592500Y-54590000D01*
X16727500Y-16510000D02*
X16727500Y-18918833D01*
X26086500Y-29120000D02*
X26086500Y-35394000D01*
X26252500Y-35560000D02*
X26252500Y-45997500D01*
X16727500Y-18918833D02*
X19888666Y-22080000D01*
X14990000Y-10330000D02*
X11965000Y-7305000D01*
X14990000Y-10330000D02*
X16727500Y-12067500D01*
X23498750Y-48751250D02*
X13061250Y-48751250D01*
X21630000Y-22080000D02*
X26086500Y-26536500D01*
X26086500Y-26536500D02*
X26086500Y-29120000D01*
X11965000Y-7305000D02*
X11965000Y-4700000D01*
X16727500Y-12210000D02*
X16727500Y-16510000D01*
X13061250Y-48751250D02*
X9592500Y-52220000D01*
X16727500Y-12067500D02*
X16727500Y-12210000D01*
X31015000Y2540000D02*
X31015000Y-406604D01*
X33316500Y-2708104D02*
X33316500Y-10066500D01*
X45302500Y-35560000D02*
X43416250Y-33673750D01*
X35777500Y-26035000D02*
X35777500Y-21420000D01*
X43416250Y-33673750D02*
X39126250Y-29383750D01*
X31015000Y-406604D02*
X33316500Y-2708104D01*
X33316500Y-10066500D02*
X35777500Y-12527500D01*
X39126250Y-29383750D02*
X35777500Y-26035000D01*
X35777500Y-21420000D02*
X35777500Y-16510000D01*
X35777500Y-12527500D02*
X35777500Y-16510000D01*
X55110000Y-28560000D02*
X57393380Y-28560000D01*
X54827500Y-25540000D02*
X54827500Y-28277500D01*
X64352500Y-35519120D02*
X59001690Y-30168310D01*
X64352500Y-35560000D02*
X64352500Y-35519120D01*
X54827500Y-25540000D02*
X54827500Y-16510000D01*
X50065000Y-11747500D02*
X54827500Y-16510000D01*
X73847500Y-54580000D02*
X64352500Y-45085000D01*
X88175000Y-54580000D02*
X73847500Y-54580000D01*
X50065000Y2540000D02*
X50065000Y-2760000D01*
X50065000Y-2760000D02*
X50065000Y-3410000D01*
X54827500Y-28277500D02*
X55110000Y-28560000D01*
X57393380Y-28560000D02*
X59001690Y-30168310D01*
X64352500Y-45085000D02*
X64352500Y-35560000D01*
X50065000Y-3410000D02*
X50065000Y-11747500D01*
X166746250Y-54580000D02*
X116930000Y-54580000D01*
X83402500Y-44889120D02*
X83402500Y-35560000D01*
X69115000Y-4010000D02*
X69115000Y-4060000D01*
X73877500Y-26035000D02*
X73877500Y-24670000D01*
X69115000Y2540000D02*
X69115000Y-4010000D01*
X112490000Y-50140000D02*
X88653380Y-50140000D01*
X83402500Y-35560000D02*
X73877500Y-26035000D01*
X69115000Y-11747500D02*
X73877500Y-16510000D01*
X116930000Y-54580000D02*
X112490000Y-50140000D01*
X73877500Y-24670000D02*
X73877500Y-16510000D01*
X69115000Y-4060000D02*
X69115000Y-11747500D01*
X88653380Y-50140000D02*
X83402500Y-44889120D01*
X92927500Y-24060000D02*
X92927500Y-16510000D01*
X88165000Y-5240000D02*
X88165000Y-11747500D01*
X183615729Y-50052729D02*
X188163000Y-54600000D01*
X160690771Y-47803500D02*
X163477270Y-50590000D01*
X173630000Y-50052729D02*
X183615729Y-50052729D01*
X188163000Y-54600000D02*
X190518750Y-54600000D01*
X163477270Y-50590000D02*
X173092729Y-50590000D01*
X104856880Y-47333500D02*
X121369750Y-47333500D01*
X173092729Y-50590000D02*
X173630000Y-50052729D01*
X88165000Y2540000D02*
X88165000Y-4690000D01*
X121839750Y-47803500D02*
X160690771Y-47803500D01*
X102452500Y-35560000D02*
X102452500Y-44929120D01*
X92927500Y-24290000D02*
X92927500Y-24060000D01*
X102452500Y-35560000D02*
X102452500Y-35329120D01*
X102452500Y-35329120D02*
X92927500Y-25804120D01*
X121369750Y-47333500D02*
X121839750Y-47803500D01*
X102452500Y-44929120D02*
X104856880Y-47333500D01*
X88165000Y-4690000D02*
X88165000Y-5240000D01*
X92927500Y-25804120D02*
X92927500Y-24290000D01*
X88165000Y-11747500D02*
X92927500Y-16510000D01*
X107215000Y-11747500D02*
X111977500Y-16510000D01*
X107215000Y2540000D02*
X107215000Y-6080000D01*
X111977500Y-23730000D02*
X111977500Y-16510000D01*
X113701250Y-27758750D02*
X111977500Y-26035000D01*
X111977500Y-26035000D02*
X111977500Y-23730000D01*
X107215000Y-6080000D02*
X107215000Y-11747500D01*
X121502500Y-35560000D02*
X113701250Y-27758750D01*
X134701250Y-29708750D02*
X131027500Y-26035000D01*
X126265000Y-11747500D02*
X131027500Y-16510000D01*
X131027500Y-23630000D02*
X131027500Y-21850000D01*
X131027500Y-21850000D02*
X131027500Y-16510000D01*
X140552500Y-35560000D02*
X134701250Y-29708750D01*
X131027500Y-26035000D02*
X131027500Y-23630000D01*
X126265000Y2540000D02*
X126265000Y-11747500D01*
X142926500Y-9359000D02*
X142926500Y151500D01*
X159602500Y-35560000D02*
X159602500Y-35429120D01*
X150077500Y-25904120D02*
X150077500Y-22910000D01*
X150077500Y-22100000D02*
X150077500Y-16510000D01*
X181420000Y-31145000D02*
X185795000Y-35520000D01*
X150077500Y-16510000D02*
X142926500Y-9359000D01*
X159602500Y-35429120D02*
X150077500Y-25904120D01*
X150077500Y-22910000D02*
X150077500Y-22100000D01*
X164017500Y-31145000D02*
X181420000Y-31145000D01*
X159602500Y-35560000D02*
X164017500Y-31145000D01*
X142926500Y151500D02*
X145315000Y2540000D01*
X168780000Y6955000D02*
X179665000Y6955000D01*
X164365000Y2540000D02*
X168780000Y6955000D01*
X161650000Y-9025000D02*
X161650000Y-4210000D01*
X161650000Y-4210000D02*
X161650000Y-175000D01*
X190565000Y-3945000D02*
X190565000Y-6960000D01*
X169115000Y-16490000D02*
X161650000Y-9025000D01*
X161650000Y-175000D02*
X164365000Y2540000D01*
X179665000Y6955000D02*
X190565000Y-3945000D01*
X22519500Y-52050000D02*
X23082500Y-52613000D01*
X23082500Y-52613000D02*
X23082500Y-63567500D01*
X21330000Y-65320000D02*
X19295000Y-65320000D01*
X23082500Y-63567500D02*
X21330000Y-65320000D01*
X19700000Y-39540000D02*
X14060000Y-39540000D01*
X14060000Y-39540000D02*
X8590000Y-39540000D01*
X19700000Y-39540000D02*
X19700000Y-44570000D01*
X-10180000Y-11067200D02*
X-7640000Y-11067200D01*
X64540000Y-47890000D02*
X64430000Y-48000000D01*
X19700000Y-44570000D02*
X23050000Y-47920000D01*
X8590000Y-39540000D02*
X7300000Y-40830000D01*
X64430000Y-48000000D02*
X64430000Y-58380000D01*
X23265000Y-8240000D02*
X21230000Y-8240000D01*
X11240500Y-7200135D02*
X11200000Y-7159635D01*
X11200000Y-1880000D02*
X4240000Y5080000D01*
X4240000Y5080000D02*
X1079500Y5080000D01*
X11200000Y-7159635D02*
X11200000Y-1880000D01*
X32420000Y-10660000D02*
X32420000Y-5560000D01*
X24892000Y1968000D02*
X24892000Y5080000D01*
X32420000Y-10660000D02*
X30385000Y-10660000D01*
X32420000Y-5560000D02*
X24892000Y1968000D01*
X43942000Y5080000D02*
X44505000Y4517000D01*
X44505000Y4517000D02*
X44505000Y-5815000D01*
X41960000Y-8360000D02*
X39925000Y-8360000D01*
X44505000Y-5815000D02*
X41960000Y-8360000D01*
X63555000Y4517000D02*
X63555000Y-5715000D01*
X62992000Y5080000D02*
X63555000Y4517000D01*
X60910000Y-8360000D02*
X58875000Y-8360000D01*
X63555000Y-5715000D02*
X60910000Y-8360000D01*
X82042000Y5080000D02*
X82605000Y4517000D01*
X82605000Y-5915000D02*
X80120000Y-8400000D01*
X82605000Y4517000D02*
X82605000Y-5915000D01*
X80120000Y-8400000D02*
X78085000Y-8400000D01*
X99080000Y-8450000D02*
X97045000Y-8450000D01*
X101655000Y-5875000D02*
X99080000Y-8450000D01*
X101655000Y4517000D02*
X101655000Y-5875000D01*
X101092000Y5080000D02*
X101655000Y4517000D01*
X120705000Y4517000D02*
X120705000Y-6005000D01*
X120705000Y-6005000D02*
X118230000Y-8480000D01*
X120142000Y5080000D02*
X120705000Y4517000D01*
X118230000Y-8480000D02*
X116195000Y-8480000D01*
X139755000Y4517000D02*
X139755000Y-5935000D01*
X139192000Y5080000D02*
X139755000Y4517000D01*
X139755000Y-5935000D02*
X137150000Y-8540000D01*
X137150000Y-8540000D02*
X135115000Y-8540000D01*
X158805000Y4517000D02*
X158805000Y870000D01*
X151570000Y-8350000D02*
X158805000Y-1115000D01*
X158805000Y-1115000D02*
X158805000Y870000D01*
X158242000Y5080000D02*
X158805000Y4517000D01*
X151570000Y-8350000D02*
X149535000Y-8350000D01*
X177292000Y5080000D02*
X177855000Y4517000D01*
X164660000Y-8250000D02*
X169780000Y-3130000D01*
X169780000Y-3130000D02*
X171785000Y-3130000D01*
X175205000Y2993000D02*
X177292000Y5080000D01*
X175205000Y290000D02*
X175205000Y2993000D01*
X164660000Y-8250000D02*
X162625000Y-8250000D01*
X171785000Y-3130000D02*
X175205000Y290000D01*
X19702270Y-22530000D02*
X14347270Y-17175000D01*
X21443604Y-22530000D02*
X19702270Y-22530000D01*
X24445000Y-27230000D02*
X22410000Y-27230000D01*
X24445000Y-27230000D02*
X24445000Y-25531396D01*
X24445000Y-25531396D02*
X21443604Y-22530000D01*
X14347270Y-17175000D02*
X6684500Y-17175000D01*
X6684500Y-17175000D02*
X3459500Y-13950000D01*
X34730000Y-27310000D02*
X34730000Y-19045500D01*
X29654500Y-13970000D02*
X30217500Y-14533000D01*
X34730000Y-19045500D02*
X29654500Y-13970000D01*
X34730000Y-27310000D02*
X32695000Y-27310000D01*
X48704500Y-13970000D02*
X49267500Y-14533000D01*
X46760000Y-27230000D02*
X44725000Y-27230000D01*
X49267500Y-24722500D02*
X46760000Y-27230000D01*
X49267500Y-14533000D02*
X49267500Y-24722500D01*
X65690000Y-27380000D02*
X63655000Y-27380000D01*
X68317500Y-14533000D02*
X68317500Y-24752500D01*
X67754500Y-13970000D02*
X68317500Y-14533000D01*
X68317500Y-24752500D02*
X65690000Y-27380000D01*
X86804500Y-13970000D02*
X87367500Y-14533000D01*
X87367500Y-24772500D02*
X84760000Y-27380000D01*
X87367500Y-14533000D02*
X87367500Y-24772500D01*
X84760000Y-27380000D02*
X82725000Y-27380000D01*
X105854500Y-13970000D02*
X106417500Y-14533000D01*
X106417500Y-24682500D02*
X103850000Y-27250000D01*
X103850000Y-27250000D02*
X101815000Y-27250000D01*
X106417500Y-14533000D02*
X106417500Y-24682500D01*
X125467500Y-24702500D02*
X122940000Y-27230000D01*
X122940000Y-27230000D02*
X120905000Y-27230000D01*
X125467500Y-14533000D02*
X125467500Y-24702500D01*
X124904500Y-13970000D02*
X125467500Y-14533000D01*
X144517500Y-14533000D02*
X144517500Y-24592500D01*
X141850000Y-27260000D02*
X139815000Y-27260000D01*
X143954500Y-13970000D02*
X144517500Y-14533000D01*
X144517500Y-24592500D02*
X141850000Y-27260000D01*
X163567500Y-24782500D02*
X161000000Y-27350000D01*
X163004500Y-13970000D02*
X163567500Y-14533000D01*
X163567500Y-14533000D02*
X163567500Y-24782500D01*
X161000000Y-27350000D02*
X158965000Y-27350000D01*
X182605000Y-14513000D02*
X182605000Y-25030000D01*
X182042000Y-13950000D02*
X182605000Y-14513000D01*
X180365000Y-27270000D02*
X178330000Y-27270000D01*
X182605000Y-25030000D02*
X180365000Y-27270000D01*
X2180000Y-46420000D02*
X6142500Y-42457500D01*
X2180000Y-46420000D02*
X145000Y-46420000D01*
X6142500Y-35097000D02*
X8229500Y-33010000D01*
X6142500Y-42457500D02*
X6142500Y-35097000D01*
X39179500Y-33020000D02*
X39742500Y-33583000D01*
X44030000Y-37870500D02*
X39179500Y-33020000D01*
X44030000Y-46420000D02*
X41995000Y-46420000D01*
X44030000Y-46420000D02*
X44030000Y-37870500D01*
X58792500Y-33583000D02*
X58792500Y-43817500D01*
X56290000Y-46320000D02*
X54255000Y-46320000D01*
X58792500Y-43817500D02*
X56290000Y-46320000D01*
X58229500Y-33020000D02*
X58792500Y-33583000D01*
X75250000Y-46310000D02*
X73215000Y-46310000D01*
X77279500Y-33020000D02*
X77842500Y-33583000D01*
X77842500Y-33583000D02*
X77842500Y-43717500D01*
X77842500Y-43717500D02*
X75250000Y-46310000D01*
X96892500Y-43697500D02*
X94290000Y-46300000D01*
X96892500Y-33583000D02*
X96892500Y-43697500D01*
X96329500Y-33020000D02*
X96892500Y-33583000D01*
X94290000Y-46300000D02*
X92255000Y-46300000D01*
X113310000Y-46310000D02*
X111275000Y-46310000D01*
X115942500Y-33583000D02*
X115942500Y-43677500D01*
X115379500Y-33020000D02*
X115942500Y-33583000D01*
X115942500Y-43677500D02*
X113310000Y-46310000D01*
X132360000Y-46330000D02*
X130325000Y-46330000D01*
X134992500Y-43697500D02*
X132360000Y-46330000D01*
X134429500Y-33020000D02*
X134992500Y-33583000D01*
X134992500Y-33583000D02*
X134992500Y-43697500D01*
X151470000Y-46340000D02*
X149435000Y-46340000D01*
X154042500Y-43767500D02*
X151470000Y-46340000D01*
X153479500Y-33020000D02*
X154042500Y-33583000D01*
X154042500Y-33583000D02*
X154042500Y-43767500D01*
X170442500Y-40937500D02*
X170442500Y-35107000D01*
X170442500Y-35107000D02*
X172529500Y-33020000D01*
X164840000Y-46540000D02*
X170442500Y-40937500D01*
X164840000Y-46540000D02*
X162805000Y-46540000D01*
X172529500Y-33020000D02*
X173092500Y-33583000D01*
X-5685000Y-65290000D02*
X-3650000Y-65290000D01*
X-736250Y-52603000D02*
X-736250Y-62376250D01*
X-1299250Y-52040000D02*
X-736250Y-52603000D01*
X-736250Y-62376250D02*
X-3650000Y-65290000D01*
X103870000Y-54808000D02*
X103870000Y-65370000D01*
X101102000Y-52040000D02*
X103870000Y-54808000D01*
X103870000Y-65370000D02*
X101835000Y-65370000D01*
X179673250Y-52040000D02*
X180236250Y-52603000D01*
X176940000Y-65280000D02*
X174905000Y-65280000D01*
X180236250Y-61983750D02*
X176940000Y-65280000D01*
X180236250Y-52603000D02*
X180236250Y-61983750D01*
X196558791Y-45828791D02*
X196558791Y-35143209D01*
X197050000Y-46320000D02*
X196558791Y-45828791D01*
X197050000Y-46320000D02*
X195015000Y-46320000D01*
X196558791Y-35143209D02*
X198722000Y-32980000D01*
X191770000Y-11925000D02*
X202178833Y-11925000D01*
X178130000Y-8440000D02*
X180153016Y-8440000D01*
X178130000Y-8440000D02*
X176095000Y-8440000D01*
X204055000Y-10048833D02*
X204055000Y-4983000D01*
X180153016Y-8440000D02*
X183638016Y-11925000D01*
X204055000Y-4983000D02*
X203492000Y-4420000D01*
X202178833Y-11925000D02*
X204055000Y-10048833D01*
X183638016Y-11925000D02*
X192450000Y-11925000D01*
X204034250Y-52623000D02*
X204034250Y-63435750D01*
X202130000Y-65340000D02*
X200095000Y-65340000D01*
X203471250Y-52060000D02*
X204034250Y-52623000D01*
X204034250Y-63435750D02*
X202130000Y-65340000D01*
X61299965Y-63699965D02*
X55980000Y-58380000D01*
X13880000Y-34550000D02*
X13890000Y-34540000D01*
X13890000Y-34540000D02*
X19700000Y-34540000D01*
X22000000Y-36840000D02*
X19700000Y-34540000D01*
X22000000Y-45650000D02*
X22000000Y-36840000D01*
X67560035Y-63699965D02*
X61299965Y-63699965D01*
X72880000Y-58380000D02*
X67560035Y-63699965D01*
M02*
