G04 #@! TF.GenerationSoftware,KiCad,Pcbnew,7.0.8*
G04 #@! TF.CreationDate,2024-08-09T14:35:13+09:00*
G04 #@! TF.ProjectId,tacash36,74616361-7368-4333-962e-6b696361645f,rev?*
G04 #@! TF.SameCoordinates,Original*
G04 #@! TF.FileFunction,Legend,Top*
G04 #@! TF.FilePolarity,Positive*
%FSLAX46Y46*%
G04 Gerber Fmt 4.6, Leading zero omitted, Abs format (unit mm)*
G04 Created by KiCad (PCBNEW 7.0.8) date 2024-08-09 14:35:13*
%MOMM*%
%LPD*%
G01*
G04 APERTURE LIST*
%ADD10C,0.125000*%
%ADD11C,0.150000*%
%ADD12C,0.120000*%
%ADD13R,1.397000X1.397000*%
%ADD14C,1.397000*%
%ADD15C,1.524000*%
%ADD16R,1.524000X1.524000*%
%ADD17C,2.000000*%
G04 APERTURE END LIST*
D10*
X2644178Y-24609313D02*
X2644178Y-24290266D01*
X2858464Y-24673123D02*
X2108464Y-24449790D01*
X2108464Y-24449790D02*
X2858464Y-24226456D01*
X2108464Y-23875504D02*
X2108464Y-23811694D01*
X2108464Y-23811694D02*
X2144178Y-23747885D01*
X2144178Y-23747885D02*
X2179892Y-23715980D01*
X2179892Y-23715980D02*
X2251321Y-23684075D01*
X2251321Y-23684075D02*
X2394178Y-23652170D01*
X2394178Y-23652170D02*
X2572750Y-23652170D01*
X2572750Y-23652170D02*
X2715607Y-23684075D01*
X2715607Y-23684075D02*
X2787035Y-23715980D01*
X2787035Y-23715980D02*
X2822750Y-23747885D01*
X2822750Y-23747885D02*
X2858464Y-23811694D01*
X2858464Y-23811694D02*
X2858464Y-23875504D01*
X2858464Y-23875504D02*
X2822750Y-23939313D01*
X2822750Y-23939313D02*
X2787035Y-23971218D01*
X2787035Y-23971218D02*
X2715607Y-24003123D01*
X2715607Y-24003123D02*
X2572750Y-24035027D01*
X2572750Y-24035027D02*
X2394178Y-24035027D01*
X2394178Y-24035027D02*
X2251321Y-24003123D01*
X2251321Y-24003123D02*
X2179892Y-23971218D01*
X2179892Y-23971218D02*
X2144178Y-23939313D01*
X2144178Y-23939313D02*
X2108464Y-23875504D01*
X2072750Y-22886456D02*
X3037035Y-23460742D01*
X2465607Y-22439789D02*
X2465607Y-22663123D01*
X2858464Y-22663123D02*
X2108464Y-22663123D01*
X2108464Y-22663123D02*
X2108464Y-22344075D01*
X2108464Y-22152646D02*
X2108464Y-21705980D01*
X2108464Y-21705980D02*
X2858464Y-21993122D01*
X-8005821Y-14164075D02*
X-8041535Y-14227885D01*
X-8041535Y-14227885D02*
X-8041535Y-14323599D01*
X-8041535Y-14323599D02*
X-8005821Y-14419313D01*
X-8005821Y-14419313D02*
X-7934392Y-14483123D01*
X-7934392Y-14483123D02*
X-7862964Y-14515028D01*
X-7862964Y-14515028D02*
X-7720107Y-14546932D01*
X-7720107Y-14546932D02*
X-7612964Y-14546932D01*
X-7612964Y-14546932D02*
X-7470107Y-14515028D01*
X-7470107Y-14515028D02*
X-7398678Y-14483123D01*
X-7398678Y-14483123D02*
X-7327250Y-14419313D01*
X-7327250Y-14419313D02*
X-7291535Y-14323599D01*
X-7291535Y-14323599D02*
X-7291535Y-14259790D01*
X-7291535Y-14259790D02*
X-7327250Y-14164075D01*
X-7327250Y-14164075D02*
X-7362964Y-14132171D01*
X-7362964Y-14132171D02*
X-7612964Y-14132171D01*
X-7612964Y-14132171D02*
X-7612964Y-14259790D01*
X-7291535Y-13845028D02*
X-8041535Y-13845028D01*
X-8041535Y-13845028D02*
X-7291535Y-13462171D01*
X-7291535Y-13462171D02*
X-8041535Y-13462171D01*
X-7291535Y-13143123D02*
X-8041535Y-13143123D01*
X-8041535Y-13143123D02*
X-8041535Y-12983599D01*
X-8041535Y-12983599D02*
X-8005821Y-12887885D01*
X-8005821Y-12887885D02*
X-7934392Y-12824075D01*
X-7934392Y-12824075D02*
X-7862964Y-12792170D01*
X-7862964Y-12792170D02*
X-7720107Y-12760266D01*
X-7720107Y-12760266D02*
X-7612964Y-12760266D01*
X-7612964Y-12760266D02*
X-7470107Y-12792170D01*
X-7470107Y-12792170D02*
X-7398678Y-12824075D01*
X-7398678Y-12824075D02*
X-7327250Y-12887885D01*
X-7327250Y-12887885D02*
X-7291535Y-12983599D01*
X-7291535Y-12983599D02*
X-7291535Y-13143123D01*
X94178Y-24609313D02*
X94178Y-24290266D01*
X308464Y-24673123D02*
X-441535Y-24449790D01*
X-441535Y-24449790D02*
X308464Y-24226456D01*
X308464Y-23652170D02*
X308464Y-24035027D01*
X308464Y-23843599D02*
X-441535Y-23843599D01*
X-441535Y-23843599D02*
X-334392Y-23907408D01*
X-334392Y-23907408D02*
X-262964Y-23971218D01*
X-262964Y-23971218D02*
X-227250Y-24035027D01*
X-477250Y-22886456D02*
X487035Y-23460742D01*
X-84392Y-22439789D02*
X-84392Y-22663123D01*
X308464Y-22663123D02*
X-441535Y-22663123D01*
X-441535Y-22663123D02*
X-441535Y-22344075D01*
X-441535Y-21801694D02*
X-441535Y-21929313D01*
X-441535Y-21929313D02*
X-405821Y-21993122D01*
X-405821Y-21993122D02*
X-370107Y-22025027D01*
X-370107Y-22025027D02*
X-262964Y-22088837D01*
X-262964Y-22088837D02*
X-120107Y-22120741D01*
X-120107Y-22120741D02*
X165607Y-22120741D01*
X165607Y-22120741D02*
X237035Y-22088837D01*
X237035Y-22088837D02*
X272750Y-22056932D01*
X272750Y-22056932D02*
X308464Y-21993122D01*
X308464Y-21993122D02*
X308464Y-21865503D01*
X308464Y-21865503D02*
X272750Y-21801694D01*
X272750Y-21801694D02*
X237035Y-21769789D01*
X237035Y-21769789D02*
X165607Y-21737884D01*
X165607Y-21737884D02*
X-12964Y-21737884D01*
X-12964Y-21737884D02*
X-84392Y-21769789D01*
X-84392Y-21769789D02*
X-120107Y-21801694D01*
X-120107Y-21801694D02*
X-155821Y-21865503D01*
X-155821Y-21865503D02*
X-155821Y-21993122D01*
X-155821Y-21993122D02*
X-120107Y-22056932D01*
X-120107Y-22056932D02*
X-84392Y-22088837D01*
X-84392Y-22088837D02*
X-12964Y-22120741D01*
X-4905821Y-24609313D02*
X-4905821Y-24290266D01*
X-4691535Y-24673123D02*
X-5441535Y-24449790D01*
X-5441535Y-24449790D02*
X-4691535Y-24226456D01*
X-5441535Y-24066932D02*
X-5441535Y-23652170D01*
X-5441535Y-23652170D02*
X-5155821Y-23875504D01*
X-5155821Y-23875504D02*
X-5155821Y-23779789D01*
X-5155821Y-23779789D02*
X-5120107Y-23715980D01*
X-5120107Y-23715980D02*
X-5084392Y-23684075D01*
X-5084392Y-23684075D02*
X-5012964Y-23652170D01*
X-5012964Y-23652170D02*
X-4834392Y-23652170D01*
X-4834392Y-23652170D02*
X-4762964Y-23684075D01*
X-4762964Y-23684075D02*
X-4727250Y-23715980D01*
X-4727250Y-23715980D02*
X-4691535Y-23779789D01*
X-4691535Y-23779789D02*
X-4691535Y-23971218D01*
X-4691535Y-23971218D02*
X-4727250Y-24035027D01*
X-4727250Y-24035027D02*
X-4762964Y-24066932D01*
X-5477250Y-22886456D02*
X-4512964Y-23460742D01*
X-5084392Y-22439789D02*
X-5084392Y-22663123D01*
X-4691535Y-22663123D02*
X-5441535Y-22663123D01*
X-5441535Y-22663123D02*
X-5441535Y-22344075D01*
X-5191535Y-21801694D02*
X-4691535Y-21801694D01*
X-5477250Y-21961218D02*
X-4941535Y-22120741D01*
X-4941535Y-22120741D02*
X-4941535Y-21705980D01*
X-14891535Y-16347409D02*
X-15641535Y-16347409D01*
X-15641535Y-16347409D02*
X-15641535Y-16187885D01*
X-15641535Y-16187885D02*
X-15605821Y-16092171D01*
X-15605821Y-16092171D02*
X-15534392Y-16028361D01*
X-15534392Y-16028361D02*
X-15462964Y-15996456D01*
X-15462964Y-15996456D02*
X-15320107Y-15964552D01*
X-15320107Y-15964552D02*
X-15212964Y-15964552D01*
X-15212964Y-15964552D02*
X-15070107Y-15996456D01*
X-15070107Y-15996456D02*
X-14998678Y-16028361D01*
X-14998678Y-16028361D02*
X-14927250Y-16092171D01*
X-14927250Y-16092171D02*
X-14891535Y-16187885D01*
X-14891535Y-16187885D02*
X-14891535Y-16347409D01*
X-15641535Y-15741218D02*
X-15641535Y-15326456D01*
X-15641535Y-15326456D02*
X-15355821Y-15549790D01*
X-15355821Y-15549790D02*
X-15355821Y-15454075D01*
X-15355821Y-15454075D02*
X-15320107Y-15390266D01*
X-15320107Y-15390266D02*
X-15284392Y-15358361D01*
X-15284392Y-15358361D02*
X-15212964Y-15326456D01*
X-15212964Y-15326456D02*
X-15034392Y-15326456D01*
X-15034392Y-15326456D02*
X-14962964Y-15358361D01*
X-14962964Y-15358361D02*
X-14927250Y-15390266D01*
X-14927250Y-15390266D02*
X-14891535Y-15454075D01*
X-14891535Y-15454075D02*
X-14891535Y-15645504D01*
X-14891535Y-15645504D02*
X-14927250Y-15709313D01*
X-14927250Y-15709313D02*
X-14962964Y-15741218D01*
X-15677250Y-14560742D02*
X-14712964Y-15135028D01*
X-15641535Y-14433123D02*
X-15641535Y-14050266D01*
X-14891535Y-14241694D02*
X-15641535Y-14241694D01*
X-15641535Y-13890742D02*
X-14891535Y-13444076D01*
X-15641535Y-13444076D02*
X-14891535Y-13890742D01*
X-15641535Y-13061219D02*
X-15641535Y-12997409D01*
X-15641535Y-12997409D02*
X-15605821Y-12933600D01*
X-15605821Y-12933600D02*
X-15570107Y-12901695D01*
X-15570107Y-12901695D02*
X-15498678Y-12869790D01*
X-15498678Y-12869790D02*
X-15355821Y-12837885D01*
X-15355821Y-12837885D02*
X-15177250Y-12837885D01*
X-15177250Y-12837885D02*
X-15034392Y-12869790D01*
X-15034392Y-12869790D02*
X-14962964Y-12901695D01*
X-14962964Y-12901695D02*
X-14927250Y-12933600D01*
X-14927250Y-12933600D02*
X-14891535Y-12997409D01*
X-14891535Y-12997409D02*
X-14891535Y-13061219D01*
X-14891535Y-13061219D02*
X-14927250Y-13125028D01*
X-14927250Y-13125028D02*
X-14962964Y-13156933D01*
X-14962964Y-13156933D02*
X-15034392Y-13188838D01*
X-15034392Y-13188838D02*
X-15177250Y-13220742D01*
X-15177250Y-13220742D02*
X-15355821Y-13220742D01*
X-15355821Y-13220742D02*
X-15498678Y-13188838D01*
X-15498678Y-13188838D02*
X-15570107Y-13156933D01*
X-15570107Y-13156933D02*
X-15605821Y-13125028D01*
X-15605821Y-13125028D02*
X-15641535Y-13061219D01*
X-12341535Y-16427171D02*
X-13091535Y-16427171D01*
X-13091535Y-16427171D02*
X-13091535Y-16267647D01*
X-13091535Y-16267647D02*
X-13055821Y-16171933D01*
X-13055821Y-16171933D02*
X-12984392Y-16108123D01*
X-12984392Y-16108123D02*
X-12912964Y-16076218D01*
X-12912964Y-16076218D02*
X-12770107Y-16044314D01*
X-12770107Y-16044314D02*
X-12662964Y-16044314D01*
X-12662964Y-16044314D02*
X-12520107Y-16076218D01*
X-12520107Y-16076218D02*
X-12448678Y-16108123D01*
X-12448678Y-16108123D02*
X-12377250Y-16171933D01*
X-12377250Y-16171933D02*
X-12341535Y-16267647D01*
X-12341535Y-16267647D02*
X-12341535Y-16427171D01*
X-13020107Y-15789075D02*
X-13055821Y-15757171D01*
X-13055821Y-15757171D02*
X-13091535Y-15693361D01*
X-13091535Y-15693361D02*
X-13091535Y-15533837D01*
X-13091535Y-15533837D02*
X-13055821Y-15470028D01*
X-13055821Y-15470028D02*
X-13020107Y-15438123D01*
X-13020107Y-15438123D02*
X-12948678Y-15406218D01*
X-12948678Y-15406218D02*
X-12877250Y-15406218D01*
X-12877250Y-15406218D02*
X-12770107Y-15438123D01*
X-12770107Y-15438123D02*
X-12341535Y-15820980D01*
X-12341535Y-15820980D02*
X-12341535Y-15406218D01*
X-13127250Y-14640504D02*
X-12162964Y-15214790D01*
X-12341535Y-14034314D02*
X-12698678Y-14257647D01*
X-12341535Y-14417171D02*
X-13091535Y-14417171D01*
X-13091535Y-14417171D02*
X-13091535Y-14161933D01*
X-13091535Y-14161933D02*
X-13055821Y-14098123D01*
X-13055821Y-14098123D02*
X-13020107Y-14066218D01*
X-13020107Y-14066218D02*
X-12948678Y-14034314D01*
X-12948678Y-14034314D02*
X-12841535Y-14034314D01*
X-12841535Y-14034314D02*
X-12770107Y-14066218D01*
X-12770107Y-14066218D02*
X-12734392Y-14098123D01*
X-12734392Y-14098123D02*
X-12698678Y-14161933D01*
X-12698678Y-14161933D02*
X-12698678Y-14417171D01*
X-13091535Y-13810980D02*
X-12341535Y-13364314D01*
X-13091535Y-13364314D02*
X-12341535Y-13810980D01*
X-12341535Y-12758123D02*
X-12341535Y-13140980D01*
X-12341535Y-12949552D02*
X-13091535Y-12949552D01*
X-13091535Y-12949552D02*
X-12984392Y-13013361D01*
X-12984392Y-13013361D02*
X-12912964Y-13077171D01*
X-12912964Y-13077171D02*
X-12877250Y-13140980D01*
X-8141535Y-24686933D02*
X-7391535Y-24463600D01*
X-7391535Y-24463600D02*
X-8141535Y-24240266D01*
X-7462964Y-23634076D02*
X-7427250Y-23665980D01*
X-7427250Y-23665980D02*
X-7391535Y-23761695D01*
X-7391535Y-23761695D02*
X-7391535Y-23825504D01*
X-7391535Y-23825504D02*
X-7427250Y-23921218D01*
X-7427250Y-23921218D02*
X-7498678Y-23985028D01*
X-7498678Y-23985028D02*
X-7570107Y-24016933D01*
X-7570107Y-24016933D02*
X-7712964Y-24048837D01*
X-7712964Y-24048837D02*
X-7820107Y-24048837D01*
X-7820107Y-24048837D02*
X-7962964Y-24016933D01*
X-7962964Y-24016933D02*
X-8034392Y-23985028D01*
X-8034392Y-23985028D02*
X-8105821Y-23921218D01*
X-8105821Y-23921218D02*
X-8141535Y-23825504D01*
X-8141535Y-23825504D02*
X-8141535Y-23761695D01*
X-8141535Y-23761695D02*
X-8105821Y-23665980D01*
X-8105821Y-23665980D02*
X-8070107Y-23634076D01*
X-7462964Y-22964076D02*
X-7427250Y-22995980D01*
X-7427250Y-22995980D02*
X-7391535Y-23091695D01*
X-7391535Y-23091695D02*
X-7391535Y-23155504D01*
X-7391535Y-23155504D02*
X-7427250Y-23251218D01*
X-7427250Y-23251218D02*
X-7498678Y-23315028D01*
X-7498678Y-23315028D02*
X-7570107Y-23346933D01*
X-7570107Y-23346933D02*
X-7712964Y-23378837D01*
X-7712964Y-23378837D02*
X-7820107Y-23378837D01*
X-7820107Y-23378837D02*
X-7962964Y-23346933D01*
X-7962964Y-23346933D02*
X-8034392Y-23315028D01*
X-8034392Y-23315028D02*
X-8105821Y-23251218D01*
X-8105821Y-23251218D02*
X-8141535Y-23155504D01*
X-8141535Y-23155504D02*
X-8141535Y-23091695D01*
X-8141535Y-23091695D02*
X-8105821Y-22995980D01*
X-8105821Y-22995980D02*
X-8070107Y-22964076D01*
X13008464Y-24306218D02*
X13008464Y-24689075D01*
X13008464Y-24497647D02*
X12258464Y-24497647D01*
X12258464Y-24497647D02*
X12365607Y-24561456D01*
X12365607Y-24561456D02*
X12437035Y-24625266D01*
X12437035Y-24625266D02*
X12472750Y-24689075D01*
X12258464Y-23891457D02*
X12258464Y-23827647D01*
X12258464Y-23827647D02*
X12294178Y-23763838D01*
X12294178Y-23763838D02*
X12329892Y-23731933D01*
X12329892Y-23731933D02*
X12401321Y-23700028D01*
X12401321Y-23700028D02*
X12544178Y-23668123D01*
X12544178Y-23668123D02*
X12722750Y-23668123D01*
X12722750Y-23668123D02*
X12865607Y-23700028D01*
X12865607Y-23700028D02*
X12937035Y-23731933D01*
X12937035Y-23731933D02*
X12972750Y-23763838D01*
X12972750Y-23763838D02*
X13008464Y-23827647D01*
X13008464Y-23827647D02*
X13008464Y-23891457D01*
X13008464Y-23891457D02*
X12972750Y-23955266D01*
X12972750Y-23955266D02*
X12937035Y-23987171D01*
X12937035Y-23987171D02*
X12865607Y-24019076D01*
X12865607Y-24019076D02*
X12722750Y-24050980D01*
X12722750Y-24050980D02*
X12544178Y-24050980D01*
X12544178Y-24050980D02*
X12401321Y-24019076D01*
X12401321Y-24019076D02*
X12329892Y-23987171D01*
X12329892Y-23987171D02*
X12294178Y-23955266D01*
X12294178Y-23955266D02*
X12258464Y-23891457D01*
X12222750Y-22902409D02*
X13187035Y-23476695D01*
X12615607Y-22455742D02*
X12651321Y-22360028D01*
X12651321Y-22360028D02*
X12687035Y-22328123D01*
X12687035Y-22328123D02*
X12758464Y-22296219D01*
X12758464Y-22296219D02*
X12865607Y-22296219D01*
X12865607Y-22296219D02*
X12937035Y-22328123D01*
X12937035Y-22328123D02*
X12972750Y-22360028D01*
X12972750Y-22360028D02*
X13008464Y-22423838D01*
X13008464Y-22423838D02*
X13008464Y-22679076D01*
X13008464Y-22679076D02*
X12258464Y-22679076D01*
X12258464Y-22679076D02*
X12258464Y-22455742D01*
X12258464Y-22455742D02*
X12294178Y-22391933D01*
X12294178Y-22391933D02*
X12329892Y-22360028D01*
X12329892Y-22360028D02*
X12401321Y-22328123D01*
X12401321Y-22328123D02*
X12472750Y-22328123D01*
X12472750Y-22328123D02*
X12544178Y-22360028D01*
X12544178Y-22360028D02*
X12579892Y-22391933D01*
X12579892Y-22391933D02*
X12615607Y-22455742D01*
X12615607Y-22455742D02*
X12615607Y-22679076D01*
X12258464Y-21721933D02*
X12258464Y-21849552D01*
X12258464Y-21849552D02*
X12294178Y-21913361D01*
X12294178Y-21913361D02*
X12329892Y-21945266D01*
X12329892Y-21945266D02*
X12437035Y-22009076D01*
X12437035Y-22009076D02*
X12579892Y-22040980D01*
X12579892Y-22040980D02*
X12865607Y-22040980D01*
X12865607Y-22040980D02*
X12937035Y-22009076D01*
X12937035Y-22009076D02*
X12972750Y-21977171D01*
X12972750Y-21977171D02*
X13008464Y-21913361D01*
X13008464Y-21913361D02*
X13008464Y-21785742D01*
X13008464Y-21785742D02*
X12972750Y-21721933D01*
X12972750Y-21721933D02*
X12937035Y-21690028D01*
X12937035Y-21690028D02*
X12865607Y-21658123D01*
X12865607Y-21658123D02*
X12687035Y-21658123D01*
X12687035Y-21658123D02*
X12615607Y-21690028D01*
X12615607Y-21690028D02*
X12579892Y-21721933D01*
X12579892Y-21721933D02*
X12544178Y-21785742D01*
X12544178Y-21785742D02*
X12544178Y-21913361D01*
X12544178Y-21913361D02*
X12579892Y-21977171D01*
X12579892Y-21977171D02*
X12615607Y-22009076D01*
X12615607Y-22009076D02*
X12687035Y-22040980D01*
X2737035Y-14570266D02*
X2772750Y-14602170D01*
X2772750Y-14602170D02*
X2808464Y-14697885D01*
X2808464Y-14697885D02*
X2808464Y-14761694D01*
X2808464Y-14761694D02*
X2772750Y-14857408D01*
X2772750Y-14857408D02*
X2701321Y-14921218D01*
X2701321Y-14921218D02*
X2629892Y-14953123D01*
X2629892Y-14953123D02*
X2487035Y-14985027D01*
X2487035Y-14985027D02*
X2379892Y-14985027D01*
X2379892Y-14985027D02*
X2237035Y-14953123D01*
X2237035Y-14953123D02*
X2165607Y-14921218D01*
X2165607Y-14921218D02*
X2094178Y-14857408D01*
X2094178Y-14857408D02*
X2058464Y-14761694D01*
X2058464Y-14761694D02*
X2058464Y-14697885D01*
X2058464Y-14697885D02*
X2094178Y-14602170D01*
X2094178Y-14602170D02*
X2129892Y-14570266D01*
X2058464Y-13995980D02*
X2058464Y-14123599D01*
X2058464Y-14123599D02*
X2094178Y-14187408D01*
X2094178Y-14187408D02*
X2129892Y-14219313D01*
X2129892Y-14219313D02*
X2237035Y-14283123D01*
X2237035Y-14283123D02*
X2379892Y-14315027D01*
X2379892Y-14315027D02*
X2665607Y-14315027D01*
X2665607Y-14315027D02*
X2737035Y-14283123D01*
X2737035Y-14283123D02*
X2772750Y-14251218D01*
X2772750Y-14251218D02*
X2808464Y-14187408D01*
X2808464Y-14187408D02*
X2808464Y-14059789D01*
X2808464Y-14059789D02*
X2772750Y-13995980D01*
X2772750Y-13995980D02*
X2737035Y-13964075D01*
X2737035Y-13964075D02*
X2665607Y-13932170D01*
X2665607Y-13932170D02*
X2487035Y-13932170D01*
X2487035Y-13932170D02*
X2415607Y-13964075D01*
X2415607Y-13964075D02*
X2379892Y-13995980D01*
X2379892Y-13995980D02*
X2344178Y-14059789D01*
X2344178Y-14059789D02*
X2344178Y-14187408D01*
X2344178Y-14187408D02*
X2379892Y-14251218D01*
X2379892Y-14251218D02*
X2415607Y-14283123D01*
X2415607Y-14283123D02*
X2487035Y-14315027D01*
X2022750Y-13166456D02*
X2987035Y-13740742D01*
X2058464Y-12624075D02*
X2058464Y-12943123D01*
X2058464Y-12943123D02*
X2415607Y-12975027D01*
X2415607Y-12975027D02*
X2379892Y-12943123D01*
X2379892Y-12943123D02*
X2344178Y-12879313D01*
X2344178Y-12879313D02*
X2344178Y-12719789D01*
X2344178Y-12719789D02*
X2379892Y-12655980D01*
X2379892Y-12655980D02*
X2415607Y-12624075D01*
X2415607Y-12624075D02*
X2487035Y-12592170D01*
X2487035Y-12592170D02*
X2665607Y-12592170D01*
X2665607Y-12592170D02*
X2737035Y-12624075D01*
X2737035Y-12624075D02*
X2772750Y-12655980D01*
X2772750Y-12655980D02*
X2808464Y-12719789D01*
X2808464Y-12719789D02*
X2808464Y-12879313D01*
X2808464Y-12879313D02*
X2772750Y-12943123D01*
X2772750Y-12943123D02*
X2737035Y-12975027D01*
X7958464Y-24306218D02*
X7958464Y-24689075D01*
X7958464Y-24497647D02*
X7208464Y-24497647D01*
X7208464Y-24497647D02*
X7315607Y-24561456D01*
X7315607Y-24561456D02*
X7387035Y-24625266D01*
X7387035Y-24625266D02*
X7422750Y-24689075D01*
X7458464Y-23731933D02*
X7958464Y-23731933D01*
X7172750Y-23891457D02*
X7708464Y-24050980D01*
X7708464Y-24050980D02*
X7708464Y-23636219D01*
X7172750Y-22902409D02*
X8137035Y-23476695D01*
X7565607Y-22455742D02*
X7601321Y-22360028D01*
X7601321Y-22360028D02*
X7637035Y-22328123D01*
X7637035Y-22328123D02*
X7708464Y-22296219D01*
X7708464Y-22296219D02*
X7815607Y-22296219D01*
X7815607Y-22296219D02*
X7887035Y-22328123D01*
X7887035Y-22328123D02*
X7922750Y-22360028D01*
X7922750Y-22360028D02*
X7958464Y-22423838D01*
X7958464Y-22423838D02*
X7958464Y-22679076D01*
X7958464Y-22679076D02*
X7208464Y-22679076D01*
X7208464Y-22679076D02*
X7208464Y-22455742D01*
X7208464Y-22455742D02*
X7244178Y-22391933D01*
X7244178Y-22391933D02*
X7279892Y-22360028D01*
X7279892Y-22360028D02*
X7351321Y-22328123D01*
X7351321Y-22328123D02*
X7422750Y-22328123D01*
X7422750Y-22328123D02*
X7494178Y-22360028D01*
X7494178Y-22360028D02*
X7529892Y-22391933D01*
X7529892Y-22391933D02*
X7565607Y-22455742D01*
X7565607Y-22455742D02*
X7565607Y-22679076D01*
X7208464Y-22072885D02*
X7208464Y-21658123D01*
X7208464Y-21658123D02*
X7494178Y-21881457D01*
X7494178Y-21881457D02*
X7494178Y-21785742D01*
X7494178Y-21785742D02*
X7529892Y-21721933D01*
X7529892Y-21721933D02*
X7565607Y-21690028D01*
X7565607Y-21690028D02*
X7637035Y-21658123D01*
X7637035Y-21658123D02*
X7815607Y-21658123D01*
X7815607Y-21658123D02*
X7887035Y-21690028D01*
X7887035Y-21690028D02*
X7922750Y-21721933D01*
X7922750Y-21721933D02*
X7958464Y-21785742D01*
X7958464Y-21785742D02*
X7958464Y-21977171D01*
X7958464Y-21977171D02*
X7922750Y-22040980D01*
X7922750Y-22040980D02*
X7887035Y-22072885D01*
X-2405821Y-24609313D02*
X-2405821Y-24290266D01*
X-2191535Y-24673123D02*
X-2941535Y-24449790D01*
X-2941535Y-24449790D02*
X-2191535Y-24226456D01*
X-2870107Y-24035027D02*
X-2905821Y-24003123D01*
X-2905821Y-24003123D02*
X-2941535Y-23939313D01*
X-2941535Y-23939313D02*
X-2941535Y-23779789D01*
X-2941535Y-23779789D02*
X-2905821Y-23715980D01*
X-2905821Y-23715980D02*
X-2870107Y-23684075D01*
X-2870107Y-23684075D02*
X-2798678Y-23652170D01*
X-2798678Y-23652170D02*
X-2727250Y-23652170D01*
X-2727250Y-23652170D02*
X-2620107Y-23684075D01*
X-2620107Y-23684075D02*
X-2191535Y-24066932D01*
X-2191535Y-24066932D02*
X-2191535Y-23652170D01*
X-2977250Y-22886456D02*
X-2012964Y-23460742D01*
X-2584392Y-22439789D02*
X-2584392Y-22663123D01*
X-2191535Y-22663123D02*
X-2941535Y-22663123D01*
X-2941535Y-22663123D02*
X-2941535Y-22344075D01*
X-2941535Y-21769789D02*
X-2941535Y-22088837D01*
X-2941535Y-22088837D02*
X-2584392Y-22120741D01*
X-2584392Y-22120741D02*
X-2620107Y-22088837D01*
X-2620107Y-22088837D02*
X-2655821Y-22025027D01*
X-2655821Y-22025027D02*
X-2655821Y-21865503D01*
X-2655821Y-21865503D02*
X-2620107Y-21801694D01*
X-2620107Y-21801694D02*
X-2584392Y-21769789D01*
X-2584392Y-21769789D02*
X-2512964Y-21737884D01*
X-2512964Y-21737884D02*
X-2334392Y-21737884D01*
X-2334392Y-21737884D02*
X-2262964Y-21769789D01*
X-2262964Y-21769789D02*
X-2227250Y-21801694D01*
X-2227250Y-21801694D02*
X-2191535Y-21865503D01*
X-2191535Y-21865503D02*
X-2191535Y-22025027D01*
X-2191535Y-22025027D02*
X-2227250Y-22088837D01*
X-2227250Y-22088837D02*
X-2262964Y-22120741D01*
X5408464Y-24306218D02*
X5408464Y-24689075D01*
X5408464Y-24497647D02*
X4658464Y-24497647D01*
X4658464Y-24497647D02*
X4765607Y-24561456D01*
X4765607Y-24561456D02*
X4837035Y-24625266D01*
X4837035Y-24625266D02*
X4872750Y-24689075D01*
X4658464Y-23700028D02*
X4658464Y-24019076D01*
X4658464Y-24019076D02*
X5015607Y-24050980D01*
X5015607Y-24050980D02*
X4979892Y-24019076D01*
X4979892Y-24019076D02*
X4944178Y-23955266D01*
X4944178Y-23955266D02*
X4944178Y-23795742D01*
X4944178Y-23795742D02*
X4979892Y-23731933D01*
X4979892Y-23731933D02*
X5015607Y-23700028D01*
X5015607Y-23700028D02*
X5087035Y-23668123D01*
X5087035Y-23668123D02*
X5265607Y-23668123D01*
X5265607Y-23668123D02*
X5337035Y-23700028D01*
X5337035Y-23700028D02*
X5372750Y-23731933D01*
X5372750Y-23731933D02*
X5408464Y-23795742D01*
X5408464Y-23795742D02*
X5408464Y-23955266D01*
X5408464Y-23955266D02*
X5372750Y-24019076D01*
X5372750Y-24019076D02*
X5337035Y-24050980D01*
X4622750Y-22902409D02*
X5587035Y-23476695D01*
X5015607Y-22455742D02*
X5051321Y-22360028D01*
X5051321Y-22360028D02*
X5087035Y-22328123D01*
X5087035Y-22328123D02*
X5158464Y-22296219D01*
X5158464Y-22296219D02*
X5265607Y-22296219D01*
X5265607Y-22296219D02*
X5337035Y-22328123D01*
X5337035Y-22328123D02*
X5372750Y-22360028D01*
X5372750Y-22360028D02*
X5408464Y-22423838D01*
X5408464Y-22423838D02*
X5408464Y-22679076D01*
X5408464Y-22679076D02*
X4658464Y-22679076D01*
X4658464Y-22679076D02*
X4658464Y-22455742D01*
X4658464Y-22455742D02*
X4694178Y-22391933D01*
X4694178Y-22391933D02*
X4729892Y-22360028D01*
X4729892Y-22360028D02*
X4801321Y-22328123D01*
X4801321Y-22328123D02*
X4872750Y-22328123D01*
X4872750Y-22328123D02*
X4944178Y-22360028D01*
X4944178Y-22360028D02*
X4979892Y-22391933D01*
X4979892Y-22391933D02*
X5015607Y-22455742D01*
X5015607Y-22455742D02*
X5015607Y-22679076D01*
X5408464Y-21658123D02*
X5408464Y-22040980D01*
X5408464Y-21849552D02*
X4658464Y-21849552D01*
X4658464Y-21849552D02*
X4765607Y-21913361D01*
X4765607Y-21913361D02*
X4837035Y-21977171D01*
X4837035Y-21977171D02*
X4872750Y-22040980D01*
X-18075821Y-14164075D02*
X-18111535Y-14227885D01*
X-18111535Y-14227885D02*
X-18111535Y-14323599D01*
X-18111535Y-14323599D02*
X-18075821Y-14419313D01*
X-18075821Y-14419313D02*
X-18004392Y-14483123D01*
X-18004392Y-14483123D02*
X-17932964Y-14515028D01*
X-17932964Y-14515028D02*
X-17790107Y-14546932D01*
X-17790107Y-14546932D02*
X-17682964Y-14546932D01*
X-17682964Y-14546932D02*
X-17540107Y-14515028D01*
X-17540107Y-14515028D02*
X-17468678Y-14483123D01*
X-17468678Y-14483123D02*
X-17397250Y-14419313D01*
X-17397250Y-14419313D02*
X-17361535Y-14323599D01*
X-17361535Y-14323599D02*
X-17361535Y-14259790D01*
X-17361535Y-14259790D02*
X-17397250Y-14164075D01*
X-17397250Y-14164075D02*
X-17432964Y-14132171D01*
X-17432964Y-14132171D02*
X-17682964Y-14132171D01*
X-17682964Y-14132171D02*
X-17682964Y-14259790D01*
X-17361535Y-13845028D02*
X-18111535Y-13845028D01*
X-18111535Y-13845028D02*
X-17361535Y-13462171D01*
X-17361535Y-13462171D02*
X-18111535Y-13462171D01*
X-17361535Y-13143123D02*
X-18111535Y-13143123D01*
X-18111535Y-13143123D02*
X-18111535Y-12983599D01*
X-18111535Y-12983599D02*
X-18075821Y-12887885D01*
X-18075821Y-12887885D02*
X-18004392Y-12824075D01*
X-18004392Y-12824075D02*
X-17932964Y-12792170D01*
X-17932964Y-12792170D02*
X-17790107Y-12760266D01*
X-17790107Y-12760266D02*
X-17682964Y-12760266D01*
X-17682964Y-12760266D02*
X-17540107Y-12792170D01*
X-17540107Y-12792170D02*
X-17468678Y-12824075D01*
X-17468678Y-12824075D02*
X-17397250Y-12887885D01*
X-17397250Y-12887885D02*
X-17361535Y-12983599D01*
X-17361535Y-12983599D02*
X-17361535Y-13143123D01*
X12565607Y-14729789D02*
X12601321Y-14634075D01*
X12601321Y-14634075D02*
X12637035Y-14602170D01*
X12637035Y-14602170D02*
X12708464Y-14570266D01*
X12708464Y-14570266D02*
X12815607Y-14570266D01*
X12815607Y-14570266D02*
X12887035Y-14602170D01*
X12887035Y-14602170D02*
X12922750Y-14634075D01*
X12922750Y-14634075D02*
X12958464Y-14697885D01*
X12958464Y-14697885D02*
X12958464Y-14953123D01*
X12958464Y-14953123D02*
X12208464Y-14953123D01*
X12208464Y-14953123D02*
X12208464Y-14729789D01*
X12208464Y-14729789D02*
X12244178Y-14665980D01*
X12244178Y-14665980D02*
X12279892Y-14634075D01*
X12279892Y-14634075D02*
X12351321Y-14602170D01*
X12351321Y-14602170D02*
X12422750Y-14602170D01*
X12422750Y-14602170D02*
X12494178Y-14634075D01*
X12494178Y-14634075D02*
X12529892Y-14665980D01*
X12529892Y-14665980D02*
X12565607Y-14729789D01*
X12565607Y-14729789D02*
X12565607Y-14953123D01*
X12208464Y-13964075D02*
X12208464Y-14283123D01*
X12208464Y-14283123D02*
X12565607Y-14315027D01*
X12565607Y-14315027D02*
X12529892Y-14283123D01*
X12529892Y-14283123D02*
X12494178Y-14219313D01*
X12494178Y-14219313D02*
X12494178Y-14059789D01*
X12494178Y-14059789D02*
X12529892Y-13995980D01*
X12529892Y-13995980D02*
X12565607Y-13964075D01*
X12565607Y-13964075D02*
X12637035Y-13932170D01*
X12637035Y-13932170D02*
X12815607Y-13932170D01*
X12815607Y-13932170D02*
X12887035Y-13964075D01*
X12887035Y-13964075D02*
X12922750Y-13995980D01*
X12922750Y-13995980D02*
X12958464Y-14059789D01*
X12958464Y-14059789D02*
X12958464Y-14219313D01*
X12958464Y-14219313D02*
X12922750Y-14283123D01*
X12922750Y-14283123D02*
X12887035Y-14315027D01*
X12172750Y-13166456D02*
X13137035Y-13740742D01*
X12958464Y-12911218D02*
X12958464Y-12783599D01*
X12958464Y-12783599D02*
X12922750Y-12719789D01*
X12922750Y-12719789D02*
X12887035Y-12687885D01*
X12887035Y-12687885D02*
X12779892Y-12624075D01*
X12779892Y-12624075D02*
X12637035Y-12592170D01*
X12637035Y-12592170D02*
X12351321Y-12592170D01*
X12351321Y-12592170D02*
X12279892Y-12624075D01*
X12279892Y-12624075D02*
X12244178Y-12655980D01*
X12244178Y-12655980D02*
X12208464Y-12719789D01*
X12208464Y-12719789D02*
X12208464Y-12847408D01*
X12208464Y-12847408D02*
X12244178Y-12911218D01*
X12244178Y-12911218D02*
X12279892Y-12943123D01*
X12279892Y-12943123D02*
X12351321Y-12975027D01*
X12351321Y-12975027D02*
X12529892Y-12975027D01*
X12529892Y-12975027D02*
X12601321Y-12943123D01*
X12601321Y-12943123D02*
X12637035Y-12911218D01*
X12637035Y-12911218D02*
X12672750Y-12847408D01*
X12672750Y-12847408D02*
X12672750Y-12719789D01*
X12672750Y-12719789D02*
X12637035Y-12655980D01*
X12637035Y-12655980D02*
X12601321Y-12624075D01*
X12601321Y-12624075D02*
X12529892Y-12592170D01*
X258464Y-14953123D02*
X-491535Y-14953123D01*
X-491535Y-14953123D02*
X-491535Y-14793599D01*
X-491535Y-14793599D02*
X-455821Y-14697885D01*
X-455821Y-14697885D02*
X-384392Y-14634075D01*
X-384392Y-14634075D02*
X-312964Y-14602170D01*
X-312964Y-14602170D02*
X-170107Y-14570266D01*
X-170107Y-14570266D02*
X-62964Y-14570266D01*
X-62964Y-14570266D02*
X79892Y-14602170D01*
X79892Y-14602170D02*
X151321Y-14634075D01*
X151321Y-14634075D02*
X222750Y-14697885D01*
X222750Y-14697885D02*
X258464Y-14793599D01*
X258464Y-14793599D02*
X258464Y-14953123D01*
X-241535Y-13995980D02*
X258464Y-13995980D01*
X-527250Y-14155504D02*
X8464Y-14315027D01*
X8464Y-14315027D02*
X8464Y-13900266D01*
X-527250Y-13166456D02*
X437035Y-13740742D01*
X-241535Y-12655980D02*
X258464Y-12655980D01*
X-527250Y-12815504D02*
X8464Y-12975027D01*
X8464Y-12975027D02*
X8464Y-12560266D01*
X5358464Y-14953123D02*
X4608464Y-14953123D01*
X4608464Y-14953123D02*
X4608464Y-14793599D01*
X4608464Y-14793599D02*
X4644178Y-14697885D01*
X4644178Y-14697885D02*
X4715607Y-14634075D01*
X4715607Y-14634075D02*
X4787035Y-14602170D01*
X4787035Y-14602170D02*
X4929892Y-14570266D01*
X4929892Y-14570266D02*
X5037035Y-14570266D01*
X5037035Y-14570266D02*
X5179892Y-14602170D01*
X5179892Y-14602170D02*
X5251321Y-14634075D01*
X5251321Y-14634075D02*
X5322750Y-14697885D01*
X5322750Y-14697885D02*
X5358464Y-14793599D01*
X5358464Y-14793599D02*
X5358464Y-14953123D01*
X4608464Y-14346932D02*
X4608464Y-13900266D01*
X4608464Y-13900266D02*
X5358464Y-14187408D01*
X4572750Y-13166456D02*
X5537035Y-13740742D01*
X4608464Y-12655980D02*
X4608464Y-12783599D01*
X4608464Y-12783599D02*
X4644178Y-12847408D01*
X4644178Y-12847408D02*
X4679892Y-12879313D01*
X4679892Y-12879313D02*
X4787035Y-12943123D01*
X4787035Y-12943123D02*
X4929892Y-12975027D01*
X4929892Y-12975027D02*
X5215607Y-12975027D01*
X5215607Y-12975027D02*
X5287035Y-12943123D01*
X5287035Y-12943123D02*
X5322750Y-12911218D01*
X5322750Y-12911218D02*
X5358464Y-12847408D01*
X5358464Y-12847408D02*
X5358464Y-12719789D01*
X5358464Y-12719789D02*
X5322750Y-12655980D01*
X5322750Y-12655980D02*
X5287035Y-12624075D01*
X5287035Y-12624075D02*
X5215607Y-12592170D01*
X5215607Y-12592170D02*
X5037035Y-12592170D01*
X5037035Y-12592170D02*
X4965607Y-12624075D01*
X4965607Y-12624075D02*
X4929892Y-12655980D01*
X4929892Y-12655980D02*
X4894178Y-12719789D01*
X4894178Y-12719789D02*
X4894178Y-12847408D01*
X4894178Y-12847408D02*
X4929892Y-12911218D01*
X4929892Y-12911218D02*
X4965607Y-12943123D01*
X4965607Y-12943123D02*
X5037035Y-12975027D01*
X-9841535Y-24160504D02*
X-10198678Y-24383837D01*
X-9841535Y-24543361D02*
X-10591535Y-24543361D01*
X-10591535Y-24543361D02*
X-10591535Y-24288123D01*
X-10591535Y-24288123D02*
X-10555821Y-24224313D01*
X-10555821Y-24224313D02*
X-10520107Y-24192408D01*
X-10520107Y-24192408D02*
X-10448678Y-24160504D01*
X-10448678Y-24160504D02*
X-10341535Y-24160504D01*
X-10341535Y-24160504D02*
X-10270107Y-24192408D01*
X-10270107Y-24192408D02*
X-10234392Y-24224313D01*
X-10234392Y-24224313D02*
X-10198678Y-24288123D01*
X-10198678Y-24288123D02*
X-10198678Y-24543361D01*
X-9877250Y-23905265D02*
X-9841535Y-23809551D01*
X-9841535Y-23809551D02*
X-9841535Y-23650027D01*
X-9841535Y-23650027D02*
X-9877250Y-23586218D01*
X-9877250Y-23586218D02*
X-9912964Y-23554313D01*
X-9912964Y-23554313D02*
X-9984392Y-23522408D01*
X-9984392Y-23522408D02*
X-10055821Y-23522408D01*
X-10055821Y-23522408D02*
X-10127250Y-23554313D01*
X-10127250Y-23554313D02*
X-10162964Y-23586218D01*
X-10162964Y-23586218D02*
X-10198678Y-23650027D01*
X-10198678Y-23650027D02*
X-10234392Y-23777646D01*
X-10234392Y-23777646D02*
X-10270107Y-23841456D01*
X-10270107Y-23841456D02*
X-10305821Y-23873361D01*
X-10305821Y-23873361D02*
X-10377250Y-23905265D01*
X-10377250Y-23905265D02*
X-10448678Y-23905265D01*
X-10448678Y-23905265D02*
X-10520107Y-23873361D01*
X-10520107Y-23873361D02*
X-10555821Y-23841456D01*
X-10555821Y-23841456D02*
X-10591535Y-23777646D01*
X-10591535Y-23777646D02*
X-10591535Y-23618123D01*
X-10591535Y-23618123D02*
X-10555821Y-23522408D01*
X-10591535Y-23330980D02*
X-10591535Y-22948123D01*
X-9841535Y-23139551D02*
X-10591535Y-23139551D01*
X-4677250Y-17667170D02*
X-4641535Y-17571456D01*
X-4641535Y-17571456D02*
X-4641535Y-17411932D01*
X-4641535Y-17411932D02*
X-4677250Y-17348123D01*
X-4677250Y-17348123D02*
X-4712964Y-17316218D01*
X-4712964Y-17316218D02*
X-4784392Y-17284313D01*
X-4784392Y-17284313D02*
X-4855821Y-17284313D01*
X-4855821Y-17284313D02*
X-4927250Y-17316218D01*
X-4927250Y-17316218D02*
X-4962964Y-17348123D01*
X-4962964Y-17348123D02*
X-4998678Y-17411932D01*
X-4998678Y-17411932D02*
X-5034392Y-17539551D01*
X-5034392Y-17539551D02*
X-5070107Y-17603361D01*
X-5070107Y-17603361D02*
X-5105821Y-17635266D01*
X-5105821Y-17635266D02*
X-5177250Y-17667170D01*
X-5177250Y-17667170D02*
X-5248678Y-17667170D01*
X-5248678Y-17667170D02*
X-5320107Y-17635266D01*
X-5320107Y-17635266D02*
X-5355821Y-17603361D01*
X-5355821Y-17603361D02*
X-5391535Y-17539551D01*
X-5391535Y-17539551D02*
X-5391535Y-17380028D01*
X-5391535Y-17380028D02*
X-5355821Y-17284313D01*
X-4641535Y-16997171D02*
X-5391535Y-16997171D01*
X-5391535Y-16997171D02*
X-5391535Y-16837647D01*
X-5391535Y-16837647D02*
X-5355821Y-16741933D01*
X-5355821Y-16741933D02*
X-5284392Y-16678123D01*
X-5284392Y-16678123D02*
X-5212964Y-16646218D01*
X-5212964Y-16646218D02*
X-5070107Y-16614314D01*
X-5070107Y-16614314D02*
X-4962964Y-16614314D01*
X-4962964Y-16614314D02*
X-4820107Y-16646218D01*
X-4820107Y-16646218D02*
X-4748678Y-16678123D01*
X-4748678Y-16678123D02*
X-4677250Y-16741933D01*
X-4677250Y-16741933D02*
X-4641535Y-16837647D01*
X-4641535Y-16837647D02*
X-4641535Y-16997171D01*
X-4855821Y-16359075D02*
X-4855821Y-16040028D01*
X-4641535Y-16422885D02*
X-5391535Y-16199552D01*
X-5391535Y-16199552D02*
X-4641535Y-15976218D01*
X-5427250Y-15274313D02*
X-4462964Y-15848599D01*
X-4641535Y-15050980D02*
X-5391535Y-15050980D01*
X-5391535Y-15050980D02*
X-5391535Y-14891456D01*
X-5391535Y-14891456D02*
X-5355821Y-14795742D01*
X-5355821Y-14795742D02*
X-5284392Y-14731932D01*
X-5284392Y-14731932D02*
X-5212964Y-14700027D01*
X-5212964Y-14700027D02*
X-5070107Y-14668123D01*
X-5070107Y-14668123D02*
X-4962964Y-14668123D01*
X-4962964Y-14668123D02*
X-4820107Y-14700027D01*
X-4820107Y-14700027D02*
X-4748678Y-14731932D01*
X-4748678Y-14731932D02*
X-4677250Y-14795742D01*
X-4677250Y-14795742D02*
X-4641535Y-14891456D01*
X-4641535Y-14891456D02*
X-4641535Y-15050980D01*
X-4641535Y-14030027D02*
X-4641535Y-14412884D01*
X-4641535Y-14221456D02*
X-5391535Y-14221456D01*
X-5391535Y-14221456D02*
X-5284392Y-14285265D01*
X-5284392Y-14285265D02*
X-5212964Y-14349075D01*
X-5212964Y-14349075D02*
X-5177250Y-14412884D01*
X-5427250Y-13264313D02*
X-4462964Y-13838599D01*
X-5320107Y-13072884D02*
X-5355821Y-13040980D01*
X-5355821Y-13040980D02*
X-5391535Y-12977170D01*
X-5391535Y-12977170D02*
X-5391535Y-12817646D01*
X-5391535Y-12817646D02*
X-5355821Y-12753837D01*
X-5355821Y-12753837D02*
X-5320107Y-12721932D01*
X-5320107Y-12721932D02*
X-5248678Y-12690027D01*
X-5248678Y-12690027D02*
X-5177250Y-12690027D01*
X-5177250Y-12690027D02*
X-5070107Y-12721932D01*
X-5070107Y-12721932D02*
X-4641535Y-13104789D01*
X-4641535Y-13104789D02*
X-4641535Y-12690027D01*
X10065607Y-14729789D02*
X10101321Y-14634075D01*
X10101321Y-14634075D02*
X10137035Y-14602170D01*
X10137035Y-14602170D02*
X10208464Y-14570266D01*
X10208464Y-14570266D02*
X10315607Y-14570266D01*
X10315607Y-14570266D02*
X10387035Y-14602170D01*
X10387035Y-14602170D02*
X10422750Y-14634075D01*
X10422750Y-14634075D02*
X10458464Y-14697885D01*
X10458464Y-14697885D02*
X10458464Y-14953123D01*
X10458464Y-14953123D02*
X9708464Y-14953123D01*
X9708464Y-14953123D02*
X9708464Y-14729789D01*
X9708464Y-14729789D02*
X9744178Y-14665980D01*
X9744178Y-14665980D02*
X9779892Y-14634075D01*
X9779892Y-14634075D02*
X9851321Y-14602170D01*
X9851321Y-14602170D02*
X9922750Y-14602170D01*
X9922750Y-14602170D02*
X9994178Y-14634075D01*
X9994178Y-14634075D02*
X10029892Y-14665980D01*
X10029892Y-14665980D02*
X10065607Y-14729789D01*
X10065607Y-14729789D02*
X10065607Y-14953123D01*
X9958464Y-13995980D02*
X10458464Y-13995980D01*
X9672750Y-14155504D02*
X10208464Y-14315027D01*
X10208464Y-14315027D02*
X10208464Y-13900266D01*
X9672750Y-13166456D02*
X10637035Y-13740742D01*
X10029892Y-12847408D02*
X9994178Y-12911218D01*
X9994178Y-12911218D02*
X9958464Y-12943123D01*
X9958464Y-12943123D02*
X9887035Y-12975027D01*
X9887035Y-12975027D02*
X9851321Y-12975027D01*
X9851321Y-12975027D02*
X9779892Y-12943123D01*
X9779892Y-12943123D02*
X9744178Y-12911218D01*
X9744178Y-12911218D02*
X9708464Y-12847408D01*
X9708464Y-12847408D02*
X9708464Y-12719789D01*
X9708464Y-12719789D02*
X9744178Y-12655980D01*
X9744178Y-12655980D02*
X9779892Y-12624075D01*
X9779892Y-12624075D02*
X9851321Y-12592170D01*
X9851321Y-12592170D02*
X9887035Y-12592170D01*
X9887035Y-12592170D02*
X9958464Y-12624075D01*
X9958464Y-12624075D02*
X9994178Y-12655980D01*
X9994178Y-12655980D02*
X10029892Y-12719789D01*
X10029892Y-12719789D02*
X10029892Y-12847408D01*
X10029892Y-12847408D02*
X10065607Y-12911218D01*
X10065607Y-12911218D02*
X10101321Y-12943123D01*
X10101321Y-12943123D02*
X10172750Y-12975027D01*
X10172750Y-12975027D02*
X10315607Y-12975027D01*
X10315607Y-12975027D02*
X10387035Y-12943123D01*
X10387035Y-12943123D02*
X10422750Y-12911218D01*
X10422750Y-12911218D02*
X10458464Y-12847408D01*
X10458464Y-12847408D02*
X10458464Y-12719789D01*
X10458464Y-12719789D02*
X10422750Y-12655980D01*
X10422750Y-12655980D02*
X10387035Y-12624075D01*
X10387035Y-12624075D02*
X10315607Y-12592170D01*
X10315607Y-12592170D02*
X10172750Y-12592170D01*
X10172750Y-12592170D02*
X10101321Y-12624075D01*
X10101321Y-12624075D02*
X10065607Y-12655980D01*
X10065607Y-12655980D02*
X10029892Y-12719789D01*
X-17754392Y-24288123D02*
X-17718678Y-24192409D01*
X-17718678Y-24192409D02*
X-17682964Y-24160504D01*
X-17682964Y-24160504D02*
X-17611535Y-24128600D01*
X-17611535Y-24128600D02*
X-17504392Y-24128600D01*
X-17504392Y-24128600D02*
X-17432964Y-24160504D01*
X-17432964Y-24160504D02*
X-17397250Y-24192409D01*
X-17397250Y-24192409D02*
X-17361535Y-24256219D01*
X-17361535Y-24256219D02*
X-17361535Y-24511457D01*
X-17361535Y-24511457D02*
X-18111535Y-24511457D01*
X-18111535Y-24511457D02*
X-18111535Y-24288123D01*
X-18111535Y-24288123D02*
X-18075821Y-24224314D01*
X-18075821Y-24224314D02*
X-18040107Y-24192409D01*
X-18040107Y-24192409D02*
X-17968678Y-24160504D01*
X-17968678Y-24160504D02*
X-17897250Y-24160504D01*
X-17897250Y-24160504D02*
X-17825821Y-24192409D01*
X-17825821Y-24192409D02*
X-17790107Y-24224314D01*
X-17790107Y-24224314D02*
X-17754392Y-24288123D01*
X-17754392Y-24288123D02*
X-17754392Y-24511457D01*
X-17575821Y-23873361D02*
X-17575821Y-23554314D01*
X-17361535Y-23937171D02*
X-18111535Y-23713838D01*
X-18111535Y-23713838D02*
X-17361535Y-23490504D01*
X-18111535Y-23362885D02*
X-18111535Y-22980028D01*
X-17361535Y-23171456D02*
X-18111535Y-23171456D01*
X7515607Y-14921218D02*
X7515607Y-14697884D01*
X7908464Y-14602170D02*
X7908464Y-14921218D01*
X7908464Y-14921218D02*
X7158464Y-14921218D01*
X7158464Y-14921218D02*
X7158464Y-14602170D01*
X7158464Y-14027885D02*
X7158464Y-14155504D01*
X7158464Y-14155504D02*
X7194178Y-14219313D01*
X7194178Y-14219313D02*
X7229892Y-14251218D01*
X7229892Y-14251218D02*
X7337035Y-14315028D01*
X7337035Y-14315028D02*
X7479892Y-14346932D01*
X7479892Y-14346932D02*
X7765607Y-14346932D01*
X7765607Y-14346932D02*
X7837035Y-14315028D01*
X7837035Y-14315028D02*
X7872750Y-14283123D01*
X7872750Y-14283123D02*
X7908464Y-14219313D01*
X7908464Y-14219313D02*
X7908464Y-14091694D01*
X7908464Y-14091694D02*
X7872750Y-14027885D01*
X7872750Y-14027885D02*
X7837035Y-13995980D01*
X7837035Y-13995980D02*
X7765607Y-13964075D01*
X7765607Y-13964075D02*
X7587035Y-13964075D01*
X7587035Y-13964075D02*
X7515607Y-13995980D01*
X7515607Y-13995980D02*
X7479892Y-14027885D01*
X7479892Y-14027885D02*
X7444178Y-14091694D01*
X7444178Y-14091694D02*
X7444178Y-14219313D01*
X7444178Y-14219313D02*
X7479892Y-14283123D01*
X7479892Y-14283123D02*
X7515607Y-14315028D01*
X7515607Y-14315028D02*
X7587035Y-14346932D01*
X7122750Y-13198361D02*
X8087035Y-13772647D01*
X7158464Y-13038837D02*
X7158464Y-12592171D01*
X7158464Y-12592171D02*
X7908464Y-12879313D01*
X10508464Y-24306218D02*
X10508464Y-24689075D01*
X10508464Y-24497647D02*
X9758464Y-24497647D01*
X9758464Y-24497647D02*
X9865607Y-24561456D01*
X9865607Y-24561456D02*
X9937035Y-24625266D01*
X9937035Y-24625266D02*
X9972750Y-24689075D01*
X9758464Y-23731933D02*
X9758464Y-23859552D01*
X9758464Y-23859552D02*
X9794178Y-23923361D01*
X9794178Y-23923361D02*
X9829892Y-23955266D01*
X9829892Y-23955266D02*
X9937035Y-24019076D01*
X9937035Y-24019076D02*
X10079892Y-24050980D01*
X10079892Y-24050980D02*
X10365607Y-24050980D01*
X10365607Y-24050980D02*
X10437035Y-24019076D01*
X10437035Y-24019076D02*
X10472750Y-23987171D01*
X10472750Y-23987171D02*
X10508464Y-23923361D01*
X10508464Y-23923361D02*
X10508464Y-23795742D01*
X10508464Y-23795742D02*
X10472750Y-23731933D01*
X10472750Y-23731933D02*
X10437035Y-23700028D01*
X10437035Y-23700028D02*
X10365607Y-23668123D01*
X10365607Y-23668123D02*
X10187035Y-23668123D01*
X10187035Y-23668123D02*
X10115607Y-23700028D01*
X10115607Y-23700028D02*
X10079892Y-23731933D01*
X10079892Y-23731933D02*
X10044178Y-23795742D01*
X10044178Y-23795742D02*
X10044178Y-23923361D01*
X10044178Y-23923361D02*
X10079892Y-23987171D01*
X10079892Y-23987171D02*
X10115607Y-24019076D01*
X10115607Y-24019076D02*
X10187035Y-24050980D01*
X9722750Y-22902409D02*
X10687035Y-23476695D01*
X10115607Y-22455742D02*
X10151321Y-22360028D01*
X10151321Y-22360028D02*
X10187035Y-22328123D01*
X10187035Y-22328123D02*
X10258464Y-22296219D01*
X10258464Y-22296219D02*
X10365607Y-22296219D01*
X10365607Y-22296219D02*
X10437035Y-22328123D01*
X10437035Y-22328123D02*
X10472750Y-22360028D01*
X10472750Y-22360028D02*
X10508464Y-22423838D01*
X10508464Y-22423838D02*
X10508464Y-22679076D01*
X10508464Y-22679076D02*
X9758464Y-22679076D01*
X9758464Y-22679076D02*
X9758464Y-22455742D01*
X9758464Y-22455742D02*
X9794178Y-22391933D01*
X9794178Y-22391933D02*
X9829892Y-22360028D01*
X9829892Y-22360028D02*
X9901321Y-22328123D01*
X9901321Y-22328123D02*
X9972750Y-22328123D01*
X9972750Y-22328123D02*
X10044178Y-22360028D01*
X10044178Y-22360028D02*
X10079892Y-22391933D01*
X10079892Y-22391933D02*
X10115607Y-22455742D01*
X10115607Y-22455742D02*
X10115607Y-22679076D01*
X9829892Y-22040980D02*
X9794178Y-22009076D01*
X9794178Y-22009076D02*
X9758464Y-21945266D01*
X9758464Y-21945266D02*
X9758464Y-21785742D01*
X9758464Y-21785742D02*
X9794178Y-21721933D01*
X9794178Y-21721933D02*
X9829892Y-21690028D01*
X9829892Y-21690028D02*
X9901321Y-21658123D01*
X9901321Y-21658123D02*
X9972750Y-21658123D01*
X9972750Y-21658123D02*
X10079892Y-21690028D01*
X10079892Y-21690028D02*
X10508464Y-22072885D01*
X10508464Y-22072885D02*
X10508464Y-21658123D01*
X-14941535Y-24256219D02*
X-15298678Y-24479552D01*
X-14941535Y-24639076D02*
X-15691535Y-24639076D01*
X-15691535Y-24639076D02*
X-15691535Y-24383838D01*
X-15691535Y-24383838D02*
X-15655821Y-24320028D01*
X-15655821Y-24320028D02*
X-15620107Y-24288123D01*
X-15620107Y-24288123D02*
X-15548678Y-24256219D01*
X-15548678Y-24256219D02*
X-15441535Y-24256219D01*
X-15441535Y-24256219D02*
X-15370107Y-24288123D01*
X-15370107Y-24288123D02*
X-15334392Y-24320028D01*
X-15334392Y-24320028D02*
X-15298678Y-24383838D01*
X-15298678Y-24383838D02*
X-15298678Y-24639076D01*
X-15155821Y-24000980D02*
X-15155821Y-23681933D01*
X-14941535Y-24064790D02*
X-15691535Y-23841457D01*
X-15691535Y-23841457D02*
X-14941535Y-23618123D01*
X-15691535Y-23458599D02*
X-14941535Y-23299075D01*
X-14941535Y-23299075D02*
X-15477250Y-23171456D01*
X-15477250Y-23171456D02*
X-14941535Y-23043837D01*
X-14941535Y-23043837D02*
X-15691535Y-22884314D01*
X-10455821Y-14164075D02*
X-10491535Y-14227885D01*
X-10491535Y-14227885D02*
X-10491535Y-14323599D01*
X-10491535Y-14323599D02*
X-10455821Y-14419313D01*
X-10455821Y-14419313D02*
X-10384392Y-14483123D01*
X-10384392Y-14483123D02*
X-10312964Y-14515028D01*
X-10312964Y-14515028D02*
X-10170107Y-14546932D01*
X-10170107Y-14546932D02*
X-10062964Y-14546932D01*
X-10062964Y-14546932D02*
X-9920107Y-14515028D01*
X-9920107Y-14515028D02*
X-9848678Y-14483123D01*
X-9848678Y-14483123D02*
X-9777250Y-14419313D01*
X-9777250Y-14419313D02*
X-9741535Y-14323599D01*
X-9741535Y-14323599D02*
X-9741535Y-14259790D01*
X-9741535Y-14259790D02*
X-9777250Y-14164075D01*
X-9777250Y-14164075D02*
X-9812964Y-14132171D01*
X-9812964Y-14132171D02*
X-10062964Y-14132171D01*
X-10062964Y-14132171D02*
X-10062964Y-14259790D01*
X-9741535Y-13845028D02*
X-10491535Y-13845028D01*
X-10491535Y-13845028D02*
X-9741535Y-13462171D01*
X-9741535Y-13462171D02*
X-10491535Y-13462171D01*
X-9741535Y-13143123D02*
X-10491535Y-13143123D01*
X-10491535Y-13143123D02*
X-10491535Y-12983599D01*
X-10491535Y-12983599D02*
X-10455821Y-12887885D01*
X-10455821Y-12887885D02*
X-10384392Y-12824075D01*
X-10384392Y-12824075D02*
X-10312964Y-12792170D01*
X-10312964Y-12792170D02*
X-10170107Y-12760266D01*
X-10170107Y-12760266D02*
X-10062964Y-12760266D01*
X-10062964Y-12760266D02*
X-9920107Y-12792170D01*
X-9920107Y-12792170D02*
X-9848678Y-12824075D01*
X-9848678Y-12824075D02*
X-9777250Y-12887885D01*
X-9777250Y-12887885D02*
X-9741535Y-12983599D01*
X-9741535Y-12983599D02*
X-9741535Y-13143123D01*
X-13105821Y-24304075D02*
X-13141535Y-24367885D01*
X-13141535Y-24367885D02*
X-13141535Y-24463599D01*
X-13141535Y-24463599D02*
X-13105821Y-24559313D01*
X-13105821Y-24559313D02*
X-13034392Y-24623123D01*
X-13034392Y-24623123D02*
X-12962964Y-24655028D01*
X-12962964Y-24655028D02*
X-12820107Y-24686932D01*
X-12820107Y-24686932D02*
X-12712964Y-24686932D01*
X-12712964Y-24686932D02*
X-12570107Y-24655028D01*
X-12570107Y-24655028D02*
X-12498678Y-24623123D01*
X-12498678Y-24623123D02*
X-12427250Y-24559313D01*
X-12427250Y-24559313D02*
X-12391535Y-24463599D01*
X-12391535Y-24463599D02*
X-12391535Y-24399790D01*
X-12391535Y-24399790D02*
X-12427250Y-24304075D01*
X-12427250Y-24304075D02*
X-12462964Y-24272171D01*
X-12462964Y-24272171D02*
X-12712964Y-24272171D01*
X-12712964Y-24272171D02*
X-12712964Y-24399790D01*
X-12391535Y-23985028D02*
X-13141535Y-23985028D01*
X-13141535Y-23985028D02*
X-12391535Y-23602171D01*
X-12391535Y-23602171D02*
X-13141535Y-23602171D01*
X-12391535Y-23283123D02*
X-13141535Y-23283123D01*
X-13141535Y-23283123D02*
X-13141535Y-23123599D01*
X-13141535Y-23123599D02*
X-13105821Y-23027885D01*
X-13105821Y-23027885D02*
X-13034392Y-22964075D01*
X-13034392Y-22964075D02*
X-12962964Y-22932170D01*
X-12962964Y-22932170D02*
X-12820107Y-22900266D01*
X-12820107Y-22900266D02*
X-12712964Y-22900266D01*
X-12712964Y-22900266D02*
X-12570107Y-22932170D01*
X-12570107Y-22932170D02*
X-12498678Y-22964075D01*
X-12498678Y-22964075D02*
X-12427250Y-23027885D01*
X-12427250Y-23027885D02*
X-12391535Y-23123599D01*
X-12391535Y-23123599D02*
X-12391535Y-23283123D01*
X-2177250Y-17651218D02*
X-2141535Y-17555504D01*
X-2141535Y-17555504D02*
X-2141535Y-17395980D01*
X-2141535Y-17395980D02*
X-2177250Y-17332171D01*
X-2177250Y-17332171D02*
X-2212964Y-17300266D01*
X-2212964Y-17300266D02*
X-2284392Y-17268361D01*
X-2284392Y-17268361D02*
X-2355821Y-17268361D01*
X-2355821Y-17268361D02*
X-2427250Y-17300266D01*
X-2427250Y-17300266D02*
X-2462964Y-17332171D01*
X-2462964Y-17332171D02*
X-2498678Y-17395980D01*
X-2498678Y-17395980D02*
X-2534392Y-17523599D01*
X-2534392Y-17523599D02*
X-2570107Y-17587409D01*
X-2570107Y-17587409D02*
X-2605821Y-17619314D01*
X-2605821Y-17619314D02*
X-2677250Y-17651218D01*
X-2677250Y-17651218D02*
X-2748678Y-17651218D01*
X-2748678Y-17651218D02*
X-2820107Y-17619314D01*
X-2820107Y-17619314D02*
X-2855821Y-17587409D01*
X-2855821Y-17587409D02*
X-2891535Y-17523599D01*
X-2891535Y-17523599D02*
X-2891535Y-17364076D01*
X-2891535Y-17364076D02*
X-2855821Y-17268361D01*
X-2212964Y-16598362D02*
X-2177250Y-16630266D01*
X-2177250Y-16630266D02*
X-2141535Y-16725981D01*
X-2141535Y-16725981D02*
X-2141535Y-16789790D01*
X-2141535Y-16789790D02*
X-2177250Y-16885504D01*
X-2177250Y-16885504D02*
X-2248678Y-16949314D01*
X-2248678Y-16949314D02*
X-2320107Y-16981219D01*
X-2320107Y-16981219D02*
X-2462964Y-17013123D01*
X-2462964Y-17013123D02*
X-2570107Y-17013123D01*
X-2570107Y-17013123D02*
X-2712964Y-16981219D01*
X-2712964Y-16981219D02*
X-2784392Y-16949314D01*
X-2784392Y-16949314D02*
X-2855821Y-16885504D01*
X-2855821Y-16885504D02*
X-2891535Y-16789790D01*
X-2891535Y-16789790D02*
X-2891535Y-16725981D01*
X-2891535Y-16725981D02*
X-2855821Y-16630266D01*
X-2855821Y-16630266D02*
X-2820107Y-16598362D01*
X-2141535Y-15992171D02*
X-2141535Y-16311219D01*
X-2141535Y-16311219D02*
X-2891535Y-16311219D01*
X-2927250Y-15290266D02*
X-1962964Y-15864552D01*
X-2141535Y-15066933D02*
X-2891535Y-15066933D01*
X-2891535Y-15066933D02*
X-2891535Y-14907409D01*
X-2891535Y-14907409D02*
X-2855821Y-14811695D01*
X-2855821Y-14811695D02*
X-2784392Y-14747885D01*
X-2784392Y-14747885D02*
X-2712964Y-14715980D01*
X-2712964Y-14715980D02*
X-2570107Y-14684076D01*
X-2570107Y-14684076D02*
X-2462964Y-14684076D01*
X-2462964Y-14684076D02*
X-2320107Y-14715980D01*
X-2320107Y-14715980D02*
X-2248678Y-14747885D01*
X-2248678Y-14747885D02*
X-2177250Y-14811695D01*
X-2177250Y-14811695D02*
X-2141535Y-14907409D01*
X-2141535Y-14907409D02*
X-2141535Y-15066933D01*
X-2891535Y-14269314D02*
X-2891535Y-14205504D01*
X-2891535Y-14205504D02*
X-2855821Y-14141695D01*
X-2855821Y-14141695D02*
X-2820107Y-14109790D01*
X-2820107Y-14109790D02*
X-2748678Y-14077885D01*
X-2748678Y-14077885D02*
X-2605821Y-14045980D01*
X-2605821Y-14045980D02*
X-2427250Y-14045980D01*
X-2427250Y-14045980D02*
X-2284392Y-14077885D01*
X-2284392Y-14077885D02*
X-2212964Y-14109790D01*
X-2212964Y-14109790D02*
X-2177250Y-14141695D01*
X-2177250Y-14141695D02*
X-2141535Y-14205504D01*
X-2141535Y-14205504D02*
X-2141535Y-14269314D01*
X-2141535Y-14269314D02*
X-2177250Y-14333123D01*
X-2177250Y-14333123D02*
X-2212964Y-14365028D01*
X-2212964Y-14365028D02*
X-2284392Y-14396933D01*
X-2284392Y-14396933D02*
X-2427250Y-14428837D01*
X-2427250Y-14428837D02*
X-2605821Y-14428837D01*
X-2605821Y-14428837D02*
X-2748678Y-14396933D01*
X-2748678Y-14396933D02*
X-2820107Y-14365028D01*
X-2820107Y-14365028D02*
X-2855821Y-14333123D01*
X-2855821Y-14333123D02*
X-2891535Y-14269314D01*
X-2927250Y-13280266D02*
X-1962964Y-13854552D01*
X-2891535Y-13120742D02*
X-2891535Y-12705980D01*
X-2891535Y-12705980D02*
X-2605821Y-12929314D01*
X-2605821Y-12929314D02*
X-2605821Y-12833599D01*
X-2605821Y-12833599D02*
X-2570107Y-12769790D01*
X-2570107Y-12769790D02*
X-2534392Y-12737885D01*
X-2534392Y-12737885D02*
X-2462964Y-12705980D01*
X-2462964Y-12705980D02*
X-2284392Y-12705980D01*
X-2284392Y-12705980D02*
X-2212964Y-12737885D01*
X-2212964Y-12737885D02*
X-2177250Y-12769790D01*
X-2177250Y-12769790D02*
X-2141535Y-12833599D01*
X-2141535Y-12833599D02*
X-2141535Y-13025028D01*
X-2141535Y-13025028D02*
X-2177250Y-13088837D01*
X-2177250Y-13088837D02*
X-2212964Y-13120742D01*
D11*
X112186666Y-54684819D02*
X112186666Y-55399104D01*
X112186666Y-55399104D02*
X112139047Y-55541961D01*
X112139047Y-55541961D02*
X112043809Y-55637200D01*
X112043809Y-55637200D02*
X111900952Y-55684819D01*
X111900952Y-55684819D02*
X111805714Y-55684819D01*
X112615238Y-54780057D02*
X112662857Y-54732438D01*
X112662857Y-54732438D02*
X112758095Y-54684819D01*
X112758095Y-54684819D02*
X112996190Y-54684819D01*
X112996190Y-54684819D02*
X113091428Y-54732438D01*
X113091428Y-54732438D02*
X113139047Y-54780057D01*
X113139047Y-54780057D02*
X113186666Y-54875295D01*
X113186666Y-54875295D02*
X113186666Y-54970533D01*
X113186666Y-54970533D02*
X113139047Y-55113390D01*
X113139047Y-55113390D02*
X112567619Y-55684819D01*
X112567619Y-55684819D02*
X113186666Y-55684819D01*
X-16045180Y-2092381D02*
X-16521371Y-2425714D01*
X-16045180Y-2663809D02*
X-17045180Y-2663809D01*
X-17045180Y-2663809D02*
X-17045180Y-2282857D01*
X-17045180Y-2282857D02*
X-16997561Y-2187619D01*
X-16997561Y-2187619D02*
X-16949942Y-2140000D01*
X-16949942Y-2140000D02*
X-16854704Y-2092381D01*
X-16854704Y-2092381D02*
X-16711847Y-2092381D01*
X-16711847Y-2092381D02*
X-16616609Y-2140000D01*
X-16616609Y-2140000D02*
X-16568990Y-2187619D01*
X-16568990Y-2187619D02*
X-16521371Y-2282857D01*
X-16521371Y-2282857D02*
X-16521371Y-2663809D01*
X-16568990Y-1663809D02*
X-16568990Y-1330476D01*
X-16045180Y-1187619D02*
X-16045180Y-1663809D01*
X-16045180Y-1663809D02*
X-17045180Y-1663809D01*
X-17045180Y-1663809D02*
X-17045180Y-1187619D01*
X-16092800Y-806666D02*
X-16045180Y-663809D01*
X-16045180Y-663809D02*
X-16045180Y-425714D01*
X-16045180Y-425714D02*
X-16092800Y-330476D01*
X-16092800Y-330476D02*
X-16140419Y-282857D01*
X-16140419Y-282857D02*
X-16235657Y-235238D01*
X-16235657Y-235238D02*
X-16330895Y-235238D01*
X-16330895Y-235238D02*
X-16426133Y-282857D01*
X-16426133Y-282857D02*
X-16473752Y-330476D01*
X-16473752Y-330476D02*
X-16521371Y-425714D01*
X-16521371Y-425714D02*
X-16568990Y-616190D01*
X-16568990Y-616190D02*
X-16616609Y-711428D01*
X-16616609Y-711428D02*
X-16664228Y-759047D01*
X-16664228Y-759047D02*
X-16759466Y-806666D01*
X-16759466Y-806666D02*
X-16854704Y-806666D01*
X-16854704Y-806666D02*
X-16949942Y-759047D01*
X-16949942Y-759047D02*
X-16997561Y-711428D01*
X-16997561Y-711428D02*
X-17045180Y-616190D01*
X-17045180Y-616190D02*
X-17045180Y-378095D01*
X-17045180Y-378095D02*
X-16997561Y-235238D01*
X-16568990Y193333D02*
X-16568990Y526666D01*
X-16045180Y669523D02*
X-16045180Y193333D01*
X-16045180Y193333D02*
X-17045180Y193333D01*
X-17045180Y193333D02*
X-17045180Y669523D01*
X-17045180Y955238D02*
X-17045180Y1526666D01*
X-16045180Y1240952D02*
X-17045180Y1240952D01*
X37520000Y-45670000D02*
X37520000Y-47170000D01*
X37520000Y-47170000D02*
X42920000Y-47170000D01*
X39720000Y-45920000D02*
X39720000Y-46920000D01*
X39820000Y-46420000D02*
X40720000Y-45920000D01*
X40720000Y-45920000D02*
X40720000Y-46920000D01*
X40720000Y-46920000D02*
X39820000Y-46420000D01*
X42920000Y-45670000D02*
X37520000Y-45670000D01*
X42920000Y-47170000D02*
X42920000Y-45670000D01*
X-4330000Y-45670000D02*
X-4330000Y-47170000D01*
X-4330000Y-47170000D02*
X1070000Y-47170000D01*
X-2130000Y-45920000D02*
X-2130000Y-46920000D01*
X-2030000Y-46420000D02*
X-1130000Y-45920000D01*
X-1130000Y-45920000D02*
X-1130000Y-46920000D01*
X-1130000Y-46920000D02*
X-2030000Y-46420000D01*
X1070000Y-45670000D02*
X-4330000Y-45670000D01*
X1070000Y-47170000D02*
X1070000Y-45670000D01*
X106800000Y-45560000D02*
X106800000Y-47060000D01*
X106800000Y-47060000D02*
X112200000Y-47060000D01*
X109000000Y-45810000D02*
X109000000Y-46810000D01*
X109100000Y-46310000D02*
X110000000Y-45810000D01*
X110000000Y-45810000D02*
X110000000Y-46810000D01*
X110000000Y-46810000D02*
X109100000Y-46310000D01*
X112200000Y-45560000D02*
X106800000Y-45560000D01*
X112200000Y-47060000D02*
X112200000Y-45560000D01*
X125850000Y-45580000D02*
X125850000Y-47080000D01*
X125850000Y-47080000D02*
X131250000Y-47080000D01*
X128050000Y-45830000D02*
X128050000Y-46830000D01*
X128150000Y-46330000D02*
X129050000Y-45830000D01*
X129050000Y-45830000D02*
X129050000Y-46830000D01*
X129050000Y-46830000D02*
X128150000Y-46330000D01*
X131250000Y-45580000D02*
X125850000Y-45580000D01*
X131250000Y-47080000D02*
X131250000Y-45580000D01*
X158330000Y-45790000D02*
X158330000Y-47290000D01*
X158330000Y-47290000D02*
X163730000Y-47290000D01*
X160530000Y-46040000D02*
X160530000Y-47040000D01*
X160630000Y-46540000D02*
X161530000Y-46040000D01*
X161530000Y-46040000D02*
X161530000Y-47040000D01*
X161530000Y-47040000D02*
X160630000Y-46540000D01*
X163730000Y-45790000D02*
X158330000Y-45790000D01*
X163730000Y-47290000D02*
X163730000Y-45790000D01*
X25910000Y-9910000D02*
X25910000Y-11410000D01*
X25910000Y-11410000D02*
X31310000Y-11410000D01*
X28110000Y-10160000D02*
X28110000Y-11160000D01*
X28210000Y-10660000D02*
X29110000Y-10160000D01*
X29110000Y-10160000D02*
X29110000Y-11160000D01*
X29110000Y-11160000D02*
X28210000Y-10660000D01*
X31310000Y-9910000D02*
X25910000Y-9910000D01*
X31310000Y-11410000D02*
X31310000Y-9910000D01*
X59180000Y-26630000D02*
X59180000Y-28130000D01*
X59180000Y-28130000D02*
X64580000Y-28130000D01*
X61380000Y-26880000D02*
X61380000Y-27880000D01*
X61480000Y-27380000D02*
X62380000Y-26880000D01*
X62380000Y-26880000D02*
X62380000Y-27880000D01*
X62380000Y-27880000D02*
X61480000Y-27380000D01*
X64580000Y-26630000D02*
X59180000Y-26630000D01*
X64580000Y-28130000D02*
X64580000Y-26630000D01*
X170430000Y-64530000D02*
X170430000Y-66030000D01*
X170430000Y-66030000D02*
X175830000Y-66030000D01*
X172630000Y-64780000D02*
X172630000Y-65780000D01*
X172730000Y-65280000D02*
X173630000Y-64780000D01*
X173630000Y-64780000D02*
X173630000Y-65780000D01*
X173630000Y-65780000D02*
X172730000Y-65280000D01*
X175830000Y-64530000D02*
X170430000Y-64530000D01*
X175830000Y-66030000D02*
X175830000Y-64530000D01*
X28220000Y-26560000D02*
X28220000Y-28060000D01*
X28220000Y-28060000D02*
X33620000Y-28060000D01*
X30420000Y-26810000D02*
X30420000Y-27810000D01*
X30520000Y-27310000D02*
X31420000Y-26810000D01*
X31420000Y-26810000D02*
X31420000Y-27810000D01*
X31420000Y-27810000D02*
X30520000Y-27310000D01*
X33620000Y-26560000D02*
X28220000Y-26560000D01*
X33620000Y-28060000D02*
X33620000Y-26560000D01*
X17935000Y-26480000D02*
X17935000Y-27980000D01*
X17935000Y-27980000D02*
X23335000Y-27980000D01*
X20135000Y-26730000D02*
X20135000Y-27730000D01*
X20235000Y-27230000D02*
X21135000Y-26730000D01*
X21135000Y-26730000D02*
X21135000Y-27730000D01*
X21135000Y-27730000D02*
X20235000Y-27230000D01*
X23335000Y-26480000D02*
X17935000Y-26480000D01*
X23335000Y-27980000D02*
X23335000Y-26480000D01*
X171620000Y-7690000D02*
X171620000Y-9190000D01*
X171620000Y-9190000D02*
X177020000Y-9190000D01*
X173820000Y-7940000D02*
X173820000Y-8940000D01*
X173920000Y-8440000D02*
X174820000Y-7940000D01*
X174820000Y-7940000D02*
X174820000Y-8940000D01*
X174820000Y-8940000D02*
X173920000Y-8440000D01*
X177020000Y-7690000D02*
X171620000Y-7690000D01*
X177020000Y-9190000D02*
X177020000Y-7690000D01*
X116430000Y-26480000D02*
X116430000Y-27980000D01*
X116430000Y-27980000D02*
X121830000Y-27980000D01*
X118630000Y-26730000D02*
X118630000Y-27730000D01*
X118730000Y-27230000D02*
X119630000Y-26730000D01*
X119630000Y-26730000D02*
X119630000Y-27730000D01*
X119630000Y-27730000D02*
X118730000Y-27230000D01*
X121830000Y-26480000D02*
X116430000Y-26480000D01*
X121830000Y-27980000D02*
X121830000Y-26480000D01*
X145060000Y-7600000D02*
X145060000Y-9100000D01*
X145060000Y-9100000D02*
X150460000Y-9100000D01*
X147260000Y-7850000D02*
X147260000Y-8850000D01*
X147360000Y-8350000D02*
X148260000Y-7850000D01*
X148260000Y-7850000D02*
X148260000Y-8850000D01*
X148260000Y-8850000D02*
X147360000Y-8350000D01*
X150460000Y-7600000D02*
X145060000Y-7600000D01*
X150460000Y-9100000D02*
X150460000Y-7600000D01*
X-19010000Y-42840000D02*
X-19010000Y-33840000D01*
X-15510000Y-42840000D02*
X-19010000Y-42840000D01*
X-19010000Y-33840000D02*
X-15510000Y-33840000D01*
X-15510000Y-33840000D02*
X-15510000Y-42840000D01*
X54400000Y-7610000D02*
X54400000Y-9110000D01*
X54400000Y-9110000D02*
X59800000Y-9110000D01*
X56600000Y-7860000D02*
X56600000Y-8860000D01*
X56700000Y-8360000D02*
X57600000Y-7860000D01*
X57600000Y-7860000D02*
X57600000Y-8860000D01*
X57600000Y-8860000D02*
X56700000Y-8360000D01*
X59800000Y-7610000D02*
X54400000Y-7610000D01*
X59800000Y-9110000D02*
X59800000Y-7610000D01*
X16755000Y-7490000D02*
X16755000Y-8990000D01*
X16755000Y-8990000D02*
X22155000Y-8990000D01*
X18955000Y-7740000D02*
X18955000Y-8740000D01*
X19055000Y-8240000D02*
X19955000Y-7740000D01*
X19955000Y-7740000D02*
X19955000Y-8740000D01*
X19955000Y-8740000D02*
X19055000Y-8240000D01*
X22155000Y-7490000D02*
X16755000Y-7490000D01*
X22155000Y-8990000D02*
X22155000Y-7490000D01*
X97340000Y-26500000D02*
X97340000Y-28000000D01*
X97340000Y-28000000D02*
X102740000Y-28000000D01*
X99540000Y-26750000D02*
X99540000Y-27750000D01*
X99640000Y-27250000D02*
X100540000Y-26750000D01*
X100540000Y-26750000D02*
X100540000Y-27750000D01*
X100540000Y-27750000D02*
X99640000Y-27250000D01*
X102740000Y-26500000D02*
X97340000Y-26500000D01*
X102740000Y-28000000D02*
X102740000Y-26500000D01*
X-19082000Y-27578600D02*
X-18082000Y-27578600D01*
X-19082000Y-27578600D02*
X-19082000Y-26578600D01*
X12918000Y-27578600D02*
X13968000Y-27578600D01*
X13968000Y-27578600D02*
X13968000Y-26578600D01*
X-19082000Y-9778600D02*
X-19082000Y-10728600D01*
X-19082000Y-9778600D02*
X-18082000Y-9778600D01*
X12968000Y-9778600D02*
X13968000Y-9778600D01*
X13968000Y-9778600D02*
X13968000Y-10788600D01*
X92570000Y-7700000D02*
X92570000Y-9200000D01*
X92570000Y-9200000D02*
X97970000Y-9200000D01*
X94770000Y-7950000D02*
X94770000Y-8950000D01*
X94870000Y-8450000D02*
X95770000Y-7950000D01*
X95770000Y-7950000D02*
X95770000Y-8950000D01*
X95770000Y-8950000D02*
X94870000Y-8450000D01*
X97970000Y-7700000D02*
X92570000Y-7700000D01*
X97970000Y-9200000D02*
X97970000Y-7700000D01*
X97360000Y-64620000D02*
X97360000Y-66120000D01*
X97360000Y-66120000D02*
X102760000Y-66120000D01*
X99560000Y-64870000D02*
X99560000Y-65870000D01*
X99660000Y-65370000D02*
X100560000Y-64870000D01*
X100560000Y-64870000D02*
X100560000Y-65870000D01*
X100560000Y-65870000D02*
X99660000Y-65370000D01*
X102760000Y-64620000D02*
X97360000Y-64620000D01*
X102760000Y-66120000D02*
X102760000Y-64620000D01*
X14820000Y-64570000D02*
X14820000Y-66070000D01*
X14820000Y-66070000D02*
X20220000Y-66070000D01*
X17020000Y-64820000D02*
X17020000Y-65820000D01*
X17120000Y-65320000D02*
X18020000Y-64820000D01*
X18020000Y-64820000D02*
X18020000Y-65820000D01*
X18020000Y-65820000D02*
X17120000Y-65320000D01*
X20220000Y-64570000D02*
X14820000Y-64570000D01*
X20220000Y-66070000D02*
X20220000Y-64570000D01*
X130640000Y-7790000D02*
X130640000Y-9290000D01*
X130640000Y-9290000D02*
X136040000Y-9290000D01*
X132840000Y-8040000D02*
X132840000Y-9040000D01*
X132940000Y-8540000D02*
X133840000Y-8040000D01*
X133840000Y-8040000D02*
X133840000Y-9040000D01*
X133840000Y-9040000D02*
X132940000Y-8540000D01*
X136040000Y-7790000D02*
X130640000Y-7790000D01*
X136040000Y-9290000D02*
X136040000Y-7790000D01*
X35450000Y-7610000D02*
X35450000Y-9110000D01*
X35450000Y-9110000D02*
X40850000Y-9110000D01*
X37650000Y-7860000D02*
X37650000Y-8860000D01*
X37750000Y-8360000D02*
X38650000Y-7860000D01*
X38650000Y-7860000D02*
X38650000Y-8860000D01*
X38650000Y-8860000D02*
X37750000Y-8360000D01*
X40850000Y-7610000D02*
X35450000Y-7610000D01*
X40850000Y-9110000D02*
X40850000Y-7610000D01*
X154490000Y-26600000D02*
X154490000Y-28100000D01*
X154490000Y-28100000D02*
X159890000Y-28100000D01*
X156690000Y-26850000D02*
X156690000Y-27850000D01*
X156790000Y-27350000D02*
X157690000Y-26850000D01*
X157690000Y-26850000D02*
X157690000Y-27850000D01*
X157690000Y-27850000D02*
X156790000Y-27350000D01*
X159890000Y-26600000D02*
X154490000Y-26600000D01*
X159890000Y-28100000D02*
X159890000Y-26600000D01*
X173855000Y-26520000D02*
X173855000Y-28020000D01*
X173855000Y-28020000D02*
X179255000Y-28020000D01*
X176055000Y-26770000D02*
X176055000Y-27770000D01*
X176155000Y-27270000D02*
X177055000Y-26770000D01*
X177055000Y-26770000D02*
X177055000Y-27770000D01*
X177055000Y-27770000D02*
X176155000Y-27270000D01*
X179255000Y-26520000D02*
X173855000Y-26520000D01*
X179255000Y-28020000D02*
X179255000Y-26520000D01*
X111720000Y-7730000D02*
X111720000Y-9230000D01*
X111720000Y-9230000D02*
X117120000Y-9230000D01*
X113920000Y-7980000D02*
X113920000Y-8980000D01*
X114020000Y-8480000D02*
X114920000Y-7980000D01*
X114920000Y-7980000D02*
X114920000Y-8980000D01*
X114920000Y-8980000D02*
X114020000Y-8480000D01*
X117120000Y-7730000D02*
X111720000Y-7730000D01*
X117120000Y-9230000D02*
X117120000Y-7730000D01*
X40250000Y-26480000D02*
X40250000Y-27980000D01*
X40250000Y-27980000D02*
X45650000Y-27980000D01*
X42450000Y-26730000D02*
X42450000Y-27730000D01*
X42550000Y-27230000D02*
X43450000Y-26730000D01*
X43450000Y-26730000D02*
X43450000Y-27730000D01*
X43450000Y-27730000D02*
X42550000Y-27230000D01*
X45650000Y-26480000D02*
X40250000Y-26480000D01*
X45650000Y-27980000D02*
X45650000Y-26480000D01*
X135340000Y-26510000D02*
X135340000Y-28010000D01*
X135340000Y-28010000D02*
X140740000Y-28010000D01*
X137540000Y-26760000D02*
X137540000Y-27760000D01*
X137640000Y-27260000D02*
X138540000Y-26760000D01*
X138540000Y-26760000D02*
X138540000Y-27760000D01*
X138540000Y-27760000D02*
X137640000Y-27260000D01*
X140740000Y-26510000D02*
X135340000Y-26510000D01*
X140740000Y-28010000D02*
X140740000Y-26510000D01*
X144960000Y-45590000D02*
X144960000Y-47090000D01*
X144960000Y-47090000D02*
X150360000Y-47090000D01*
X147160000Y-45840000D02*
X147160000Y-46840000D01*
X147260000Y-46340000D02*
X148160000Y-45840000D01*
X148160000Y-45840000D02*
X148160000Y-46840000D01*
X148160000Y-46840000D02*
X147260000Y-46340000D01*
X150360000Y-45590000D02*
X144960000Y-45590000D01*
X150360000Y-47090000D02*
X150360000Y-45590000D01*
X190540000Y-45570000D02*
X190540000Y-47070000D01*
X190540000Y-47070000D02*
X195940000Y-47070000D01*
X192740000Y-45820000D02*
X192740000Y-46820000D01*
X192840000Y-46320000D02*
X193740000Y-45820000D01*
X193740000Y-45820000D02*
X193740000Y-46820000D01*
X193740000Y-46820000D02*
X192840000Y-46320000D01*
X195940000Y-45570000D02*
X190540000Y-45570000D01*
X195940000Y-47070000D02*
X195940000Y-45570000D01*
X-10160000Y-64540000D02*
X-10160000Y-66040000D01*
X-10160000Y-66040000D02*
X-4760000Y-66040000D01*
X-7960000Y-64790000D02*
X-7960000Y-65790000D01*
X-7860000Y-65290000D02*
X-6960000Y-64790000D01*
X-6960000Y-64790000D02*
X-6960000Y-65790000D01*
X-6960000Y-65790000D02*
X-7860000Y-65290000D01*
X-4760000Y-64540000D02*
X-10160000Y-64540000D01*
X-4760000Y-66040000D02*
X-4760000Y-64540000D01*
X158150000Y-7500000D02*
X158150000Y-9000000D01*
X158150000Y-9000000D02*
X163550000Y-9000000D01*
X160350000Y-7750000D02*
X160350000Y-8750000D01*
X160450000Y-8250000D02*
X161350000Y-7750000D01*
X161350000Y-7750000D02*
X161350000Y-8750000D01*
X161350000Y-8750000D02*
X160450000Y-8250000D01*
X163550000Y-7500000D02*
X158150000Y-7500000D01*
X163550000Y-9000000D02*
X163550000Y-7500000D01*
X195620000Y-64590000D02*
X195620000Y-66090000D01*
X195620000Y-66090000D02*
X201020000Y-66090000D01*
X197820000Y-64840000D02*
X197820000Y-65840000D01*
X197920000Y-65340000D02*
X198820000Y-64840000D01*
X198820000Y-64840000D02*
X198820000Y-65840000D01*
X198820000Y-65840000D02*
X197920000Y-65340000D01*
X201020000Y-64590000D02*
X195620000Y-64590000D01*
X201020000Y-66090000D02*
X201020000Y-64590000D01*
X68740000Y-45560000D02*
X68740000Y-47060000D01*
X68740000Y-47060000D02*
X74140000Y-47060000D01*
X70940000Y-45810000D02*
X70940000Y-46810000D01*
X71040000Y-46310000D02*
X71940000Y-45810000D01*
X71940000Y-45810000D02*
X71940000Y-46810000D01*
X71940000Y-46810000D02*
X71040000Y-46310000D01*
X74140000Y-45560000D02*
X68740000Y-45560000D01*
X74140000Y-47060000D02*
X74140000Y-45560000D01*
X73610000Y-7650000D02*
X73610000Y-9150000D01*
X73610000Y-9150000D02*
X79010000Y-9150000D01*
X75810000Y-7900000D02*
X75810000Y-8900000D01*
X75910000Y-8400000D02*
X76810000Y-7900000D01*
X76810000Y-7900000D02*
X76810000Y-8900000D01*
X76810000Y-8900000D02*
X75910000Y-8400000D01*
X79010000Y-7650000D02*
X73610000Y-7650000D01*
X79010000Y-9150000D02*
X79010000Y-7650000D01*
X49780000Y-45570000D02*
X49780000Y-47070000D01*
X49780000Y-47070000D02*
X55180000Y-47070000D01*
X51980000Y-45820000D02*
X51980000Y-46820000D01*
X52080000Y-46320000D02*
X52980000Y-45820000D01*
X52980000Y-45820000D02*
X52980000Y-46820000D01*
X52980000Y-46820000D02*
X52080000Y-46320000D01*
X55180000Y-45570000D02*
X49780000Y-45570000D01*
X55180000Y-47070000D02*
X55180000Y-45570000D01*
D12*
X109160000Y-56020000D02*
X109160000Y-57270000D01*
X109460000Y-56320000D02*
X109460000Y-61040000D01*
X109460000Y-57630000D02*
X110070000Y-57630000D01*
X109460000Y-58930000D02*
X110070000Y-58930000D01*
X109460000Y-61040000D02*
X115580000Y-61040000D01*
X110070000Y-56930000D02*
X110070000Y-60430000D01*
X110070000Y-60430000D02*
X114970000Y-60430000D01*
X110410000Y-56020000D02*
X109160000Y-56020000D01*
X110920000Y-56120000D02*
X110920000Y-56320000D01*
X111220000Y-56120000D02*
X110920000Y-56120000D01*
X111220000Y-56220000D02*
X110920000Y-56220000D01*
X111220000Y-56320000D02*
X111220000Y-56120000D01*
X112020000Y-56320000D02*
X112020000Y-56930000D01*
X112020000Y-56930000D02*
X110070000Y-56930000D01*
X112420000Y-59930000D02*
X112620000Y-59930000D01*
X112420000Y-60430000D02*
X112420000Y-59930000D01*
X112520000Y-60430000D02*
X112520000Y-59930000D01*
X112620000Y-59930000D02*
X112620000Y-60430000D01*
X113020000Y-56930000D02*
X113020000Y-56320000D01*
X114970000Y-56930000D02*
X113020000Y-56930000D01*
X114970000Y-60430000D02*
X114970000Y-56930000D01*
X115580000Y-56320000D02*
X109460000Y-56320000D01*
X115580000Y-57630000D02*
X114970000Y-57630000D01*
X115580000Y-58930000D02*
X114970000Y-58930000D01*
X115580000Y-61040000D02*
X115580000Y-56320000D01*
D11*
X78250000Y-26630000D02*
X78250000Y-28130000D01*
X78250000Y-28130000D02*
X83650000Y-28130000D01*
X80450000Y-26880000D02*
X80450000Y-27880000D01*
X80550000Y-27380000D02*
X81450000Y-26880000D01*
X81450000Y-26880000D02*
X81450000Y-27880000D01*
X81450000Y-27880000D02*
X80550000Y-27380000D01*
X83650000Y-26630000D02*
X78250000Y-26630000D01*
X83650000Y-28130000D02*
X83650000Y-26630000D01*
X-14750000Y2360000D02*
X-15000000Y2360000D01*
X-14750000Y2360000D02*
X-14750000Y-3640000D01*
X-18250000Y2360000D02*
X-18000000Y2360000D01*
X-18250000Y2360000D02*
X-18250000Y-3640000D01*
X-14750000Y-3640000D02*
X-15000000Y-3640000D01*
X-18250000Y-3640000D02*
X-18000000Y-3640000D01*
X87780000Y-45550000D02*
X87780000Y-47050000D01*
X87780000Y-47050000D02*
X93180000Y-47050000D01*
X89980000Y-45800000D02*
X89980000Y-46800000D01*
X90080000Y-46300000D02*
X90980000Y-45800000D01*
X90980000Y-45800000D02*
X90980000Y-46800000D01*
X90980000Y-46800000D02*
X90080000Y-46300000D01*
X93180000Y-45550000D02*
X87780000Y-45550000D01*
X93180000Y-47050000D02*
X93180000Y-45550000D01*
D13*
X36410000Y-46420000D03*
D14*
X44030000Y-46420000D03*
D13*
X-5440000Y-46420000D03*
D14*
X2180000Y-46420000D03*
D13*
X105690000Y-46310000D03*
D14*
X113310000Y-46310000D03*
D13*
X124740000Y-46330000D03*
D14*
X132360000Y-46330000D03*
D13*
X157220000Y-46540000D03*
D14*
X164840000Y-46540000D03*
D13*
X24800000Y-10660000D03*
D14*
X32420000Y-10660000D03*
D13*
X58070000Y-27380000D03*
D14*
X65690000Y-27380000D03*
D13*
X169320000Y-65280000D03*
D14*
X176940000Y-65280000D03*
D13*
X27110000Y-27310000D03*
D14*
X34730000Y-27310000D03*
D13*
X16825000Y-27230000D03*
D14*
X24445000Y-27230000D03*
D13*
X170510000Y-8440000D03*
D14*
X178130000Y-8440000D03*
D13*
X115320000Y-27230000D03*
D14*
X122940000Y-27230000D03*
D13*
X143950000Y-8350000D03*
D14*
X151570000Y-8350000D03*
D13*
X53290000Y-8360000D03*
D14*
X60910000Y-8360000D03*
D13*
X15645000Y-8240000D03*
D14*
X23265000Y-8240000D03*
D13*
X96230000Y-27250000D03*
D14*
X103850000Y-27250000D03*
D15*
X-15260000Y-11067200D03*
X-12720000Y-11067200D03*
X-10180000Y-11067200D03*
X-7640000Y-11067200D03*
X-5100000Y-11067200D03*
X-2560000Y-11067200D03*
X-20000Y-11067200D03*
X2520000Y-11067200D03*
X5060000Y-11067200D03*
X7600000Y-11067200D03*
X10140000Y-11067200D03*
X12680000Y-11067200D03*
X12680000Y-26287200D03*
X10140000Y-26287200D03*
X7600000Y-26287200D03*
X5060000Y-26287200D03*
X2520000Y-26287200D03*
X-20000Y-26287200D03*
X-2560000Y-26287200D03*
X-5100000Y-26287200D03*
X-7640000Y-26287200D03*
X-10180000Y-26287200D03*
X-12720000Y-26287200D03*
X-15260000Y-26287200D03*
D16*
X-17800000Y-26287200D03*
D15*
X-17800000Y-11067200D03*
D13*
X91460000Y-8450000D03*
D14*
X99080000Y-8450000D03*
D13*
X96250000Y-65370000D03*
D14*
X103870000Y-65370000D03*
D13*
X13710000Y-65320000D03*
D14*
X21330000Y-65320000D03*
D13*
X129530000Y-8540000D03*
D14*
X137150000Y-8540000D03*
D13*
X34340000Y-8360000D03*
D14*
X41960000Y-8360000D03*
D13*
X153380000Y-27350000D03*
D14*
X161000000Y-27350000D03*
D13*
X172745000Y-27270000D03*
D14*
X180365000Y-27270000D03*
D13*
X110610000Y-8480000D03*
D14*
X118230000Y-8480000D03*
D13*
X39140000Y-27230000D03*
D14*
X46760000Y-27230000D03*
D13*
X134230000Y-27260000D03*
D14*
X141850000Y-27260000D03*
D13*
X143850000Y-46340000D03*
D14*
X151470000Y-46340000D03*
D13*
X189430000Y-46320000D03*
D14*
X197050000Y-46320000D03*
D13*
X-11270000Y-65290000D03*
D14*
X-3650000Y-65290000D03*
D13*
X157040000Y-8250000D03*
D14*
X164660000Y-8250000D03*
D13*
X194510000Y-65340000D03*
D14*
X202130000Y-65340000D03*
D13*
X67630000Y-46310000D03*
D14*
X75250000Y-46310000D03*
D13*
X72500000Y-8400000D03*
D14*
X80120000Y-8400000D03*
D13*
X48670000Y-46320000D03*
D14*
X56290000Y-46320000D03*
D13*
X77140000Y-27380000D03*
D14*
X84760000Y-27380000D03*
D17*
X-16500000Y-3890000D03*
X-16500000Y2610000D03*
D13*
X86670000Y-46300000D03*
D14*
X94290000Y-46300000D03*
M02*
